<svg xmlns="http://www.w3.org/2000/svg" viewBox="0 0 386.61 189.79"><defs><style>.cls-1{fill:#d3ffff;}.cls-2{fill:#87ffff;}.cls-3{fill:none;stroke:#000;stroke-linecap:square;stroke-width:0.25px;}</style></defs><g id="Layer_2" data-name="Layer 2"><g id="artworks"><rect class="cls-1" x="193.3" y="139.61" width="185.85" height="50.19"/><rect class="cls-1" x="193.3" y="38.09" width="185.85" height="50.19"/><rect class="cls-2" x="7.61" y="0.29" width="185.49" height="12.63"/><line class="cls-3" x1="386.48" y1="50.75" x2="386.48" y2="0.13"/><polyline class="cls-3" points="386.49 50.75 386.49 50.75 0.13 50.75 0.13 0.13 386.49 0.13"/><line class="cls-3" x1="0.13" y1="38.09" x2="386.48" y2="38.09"/><line class="cls-3" x1="0.13" y1="25.44" x2="386.48" y2="25.44"/><line class="cls-3" x1="0.13" y1="12.78" x2="386.48" y2="12.78"/><line class="cls-3" x1="7.41" y1="50.75" x2="7.41" y2="0.13"/><line class="cls-3" x1="193.3" y1="50.75" x2="193.3" y2="0.13"/><line class="cls-3" x1="379.2" y1="50.75" x2="379.2" y2="0.13"/><line class="cls-3" x1="386.48" y1="152.26" x2="386.48" y2="101.64"/><polyline class="cls-3" points="386.49 152.26 386.49 152.26 0.13 152.26 0.13 101.64 386.49 101.64"/><line class="cls-3" x1="0.13" y1="139.61" x2="386.48" y2="139.61"/><line class="cls-3" x1="0.13" y1="126.95" x2="386.48" y2="126.95"/><line class="cls-3" x1="0.13" y1="114.29" x2="386.48" y2="114.29"/><line class="cls-3" x1="7.41" y1="152.26" x2="7.41" y2="101.64"/><line class="cls-3" x1="193.3" y1="152.26" x2="193.3" y2="101.64"/><line class="cls-3" x1="379.2" y1="152.26" x2="379.2" y2="101.64"/><rect class="cls-2" x="7.61" y="101.64" width="185.49" height="12.63"/></g></g></svg>