<svg xmlns="http://www.w3.org/2000/svg" viewBox="0 0 1209.69 454.48"><defs><style>.cls-1{fill:#d3ffff;}.cls-2{fill:#87ffff;}.cls-3{fill:#66deff;}.cls-4{fill:none;stroke:#000;stroke-linecap:square;stroke-width:0.25px;}</style></defs><g id="Layer_2" data-name="Layer 2"><g id="artworks"><rect class="cls-1" x="15.3" y="135.73" width="392.24" height="105.92"/><rect class="cls-2" x="15.56" y="0.09" width="392.88" height="26.75"/><rect class="cls-2" x="408.42" y="80.3" width="392.88" height="26.75"/><rect class="cls-2" x="801.24" y="187.18" width="392.88" height="26.75"/><rect class="cls-3" x="15.56" y="294.31" width="392.88" height="26.75"/><rect class="cls-3" x="408.42" y="374.52" width="392.88" height="26.75"/><line class="cls-4" x1="1209.56" y1="107.12" x2="1209.56" y2="0.13"/><polyline class="cls-4" points="1209.57 107.12 1209.57 107.12 0.13 107.12 0.13 0.13 1209.57 0.13"/><line class="cls-4" x1="0.13" y1="80.37" x2="1209.56" y2="80.37"/><line class="cls-4" x1="0.13" y1="53.62" x2="1209.56" y2="53.62"/><line class="cls-4" x1="0.13" y1="26.87" x2="1209.56" y2="26.87"/><line class="cls-4" x1="15.52" y1="107.12" x2="15.52" y2="0.13"/><line class="cls-4" x1="408.4" y1="107.12" x2="408.4" y2="0.13"/><line class="cls-4" x1="801.28" y1="107.12" x2="801.28" y2="0.13"/><line class="cls-4" x1="1194.16" y1="107.12" x2="1194.16" y2="0.13"/><line class="cls-4" x1="1209.56" y1="321.08" x2="1209.56" y2="214.09"/><polyline class="cls-4" points="1209.57 321.08 1209.57 321.08 0.13 321.08 0.13 214.09 1209.57 214.09"/><line class="cls-4" x1="0.13" y1="294.34" x2="1209.56" y2="294.34"/><line class="cls-4" x1="0.13" y1="267.59" x2="1209.56" y2="267.59"/><line class="cls-4" x1="0.13" y1="240.84" x2="1209.56" y2="240.84"/><line class="cls-4" x1="15.52" y1="321.08" x2="15.52" y2="214.09"/><line class="cls-4" x1="408.4" y1="321.08" x2="408.4" y2="214.09"/><line class="cls-4" x1="801.28" y1="321.08" x2="801.28" y2="214.09"/><line class="cls-4" x1="1194.16" y1="321.08" x2="1194.16" y2="214.09"/><rect class="cls-1" x="15.3" y="348.56" width="392.24" height="105.92"/></g></g></svg>