<svg xmlns="http://www.w3.org/2000/svg" viewBox="0 0 71.57 62.64"><defs><style>.cls-1{isolation:isolate;}.cls-2{mix-blend-mode:multiply;}.cls-3{fill:#231f20;}</style></defs><g class="cls-1"><g id="Layer_2" data-name="Layer 2"><g id="artworks"><g class="cls-2"><path class="cls-3" d="M41.53,26.81a3.7,3.7,0,0,0-2.38,1.06s0,.36.74,0a8.61,8.61,0,0,1,4.15-.7c1.13.1,1.32-.17,1-.3A17,17,0,0,0,41.53,26.81Z"/><path class="cls-3" d="M43.3,27.55c-1.62,0-2.07.9-2.07.9a.83.83,0,0,0,.28.85c.43.36,3.19.76,3.51-.77C45,28.53,44.91,27.55,43.3,27.55Zm-1.52.94a1.32,1.32,0,0,1,.9-.58.72.72,0,0,0-.31.59.74.74,0,0,0,.13.41l-.66,0A.58.58,0,0,1,41.78,28.49Zm2.55.37-.42,0h-.23a.71.71,0,0,0,.12-.38.72.72,0,0,0-.41-.64c1,.06,1.08.69,1.08.69A.8.8,0,0,1,44.33,28.86Z"/><path class="cls-3" d="M41.34,21.93a.76.76,0,0,0,0,.15c-.17-.17-.38-.2-.64,0a1.37,1.37,0,0,0-.34.59c-.09-.36-.66-.5-.74-.06s-.19.75-.29,1.12a2.58,2.58,0,0,1-.06-.37.39.39,0,0,0-.77,0l-.12.78c0-.05,0-.1,0-.15-.16-.47-.9-.27-.74.19l.09.32a.41.41,0,0,0-.24.3.25.25,0,0,0-.38.13.23.23,0,0,0-.27.24,1.62,1.62,0,0,1,0,.22.42.42,0,0,0-.41.19,1.78,1.78,0,0,0-.22.41,1.33,1.33,0,0,0-.66,0,.25.25,0,0,0-.12.42l0,0a1,1,0,0,0-.37.35,1,1,0,0,0-.5,0,.26.26,0,0,0-.18.24.34.34,0,0,0-.22.34c0,.09,0,.19,0,.29a.39.39,0,0,0-.53.35c0,.22,0,.46,0,.69a.45.45,0,0,0-.57.21A2.47,2.47,0,0,0,33,30.29a.36.36,0,0,0,.33.37,2.31,2.31,0,0,0,.45,1.08l.19.22a2.69,2.69,0,0,0-.21.89,1.46,1.46,0,0,0-.09.36.14.14,0,0,0,0,.11.61.61,0,0,0,0,.12c-.1.85.06,1.7-.11,2.53-.07.33.42.46.49.14a3.47,3.47,0,0,0,.06-.45,2.07,2.07,0,0,1-.17,1.25.4.4,0,0,0,.38.58.34.34,0,0,0,.29.35c0,.24-.09.48-.13.73A4.37,4.37,0,0,0,34,40a.3.3,0,0,0-.07.11,4,4,0,0,1-.27.75c-.14.29.3.55.44.25a3.77,3.77,0,0,0,.26-.66,4.92,4.92,0,0,0,.43-.82.38.38,0,0,0,.28-.34c.07-.8.24-1.58.36-2.37,0,.46,0,.93,0,1.39a.14.14,0,0,0-.15.16,2.7,2.7,0,0,1,0,.69A2.8,2.8,0,0,0,34.94,41c.1.31.6.18.5-.13-.21-.64.19-1.28.4-1.92a8.51,8.51,0,0,0,.25,2.56c.1.31.59.18.5-.13a10.24,10.24,0,0,1-.22-3.22h0c.21,1.36.69,3.08.28,4.44A2.91,2.91,0,0,0,36.72,44h0v.06c0,.29.54.23.5-.06a.2.2,0,0,0,0-.07h0a3.7,3.7,0,0,1,0-.88.35.35,0,0,0,.16-.21,8.83,8.83,0,0,0-.1-4A23.2,23.2,0,0,1,37,36.22c0-.71,0-1.42,0-2.13h0a1,1,0,0,0,.39-.08.66.66,0,0,0,.29-.2A10.9,10.9,0,0,0,45,40l.12,0h.07a17.64,17.64,0,0,0,4.69.6c.87,0,1.64-.06,2.25-.12l.09,3.28,0-3.29c.87-.09,1.4-.21,1.43-.21a.4.4,0,0,0-.07-.78,4.44,4.44,0,0,1-1.36-.3L52,9.62l2.81-.17L55,1.57C54.93,2,54,2.94,54,2.94a.94.94,0,0,0,.55.25l-.38,5.53H52V3.87l.47-1.15L51.57,0l-.76,2.77.42,1.06.05,4.94-1.88,0-.55-5.15a.7.7,0,0,0,.51-.08,4.5,4.5,0,0,1-1-1.58L49,9.4l2.21.13.85,29.64a4.31,4.31,0,0,1-1.91-1.41,4.19,4.19,0,0,0-1.35-1.34c-.1-.05-.1-.43-.1-.63,0-.49-.51-.74-.92-.94a2.29,2.29,0,0,1-.37-.2s0-.08.13-.4a.43.43,0,0,1,0-.07h0a.67.67,0,0,0,0-.5.71.71,0,0,0-.12-.23,2.61,2.61,0,0,0,.14-.54,1.27,1.27,0,0,0-.07-.67l.26-.16.33-.18.06,0h.1a1.41,1.41,0,0,0,.69-.07.79.79,0,0,0,.48-.51A1.54,1.54,0,0,0,49.26,30c-.08-.11-.22-.28-.41-.51a12.77,12.77,0,0,1-1.26-1.69c-.41-.75-1.7-2.89-2-3.3l-.17-.21a2.5,2.5,0,0,1-.65-1.5,2.3,2.3,0,0,0-.93-1.58A2.63,2.63,0,0,0,42,20.88a.4.4,0,0,0-.32.46.45.45,0,0,0,.13.22h-.06A.39.39,0,0,0,41.34,21.93Zm-.28,1.28a0,0,0,0,0,0,0v0Zm-.9,1.59h0Zm2-1.85h0v0Zm4.21,9.87-.08,0,.34-.14A.79.79,0,0,1,46.35,32.82Zm1.1,2.74a2.34,2.34,0,0,1,.48.27c0,.43,0,1,.54,1.3a3.5,3.5,0,0,1,1,1,4.78,4.78,0,0,0,2,1.63,17.9,17.9,0,0,1-6.14-.52,2.28,2.28,0,0,1-.69-.49,1,1,0,0,0-.62-.36h0l0,0a.89.89,0,0,0-.58-.3h0a.78.78,0,0,0-.62-.29h0a1.14,1.14,0,0,0-.29-.24c-.07-.05-.09-.06-.11-.12A6.4,6.4,0,0,1,42,36.16c-.1-.53-.42-.62-.55-.64a.68.68,0,0,0-.53.2.49.49,0,0,0-.36-.19.51.51,0,0,0-.28.08l0-.09-.05-.16A.57.57,0,0,0,39.8,35a.69.69,0,0,0-.47,0,10.58,10.58,0,0,1-1-1.83.37.37,0,0,0-.13-.17,1.58,1.58,0,0,1-.32-.27,1.29,1.29,0,0,0-.11-.69v0a2.24,2.24,0,0,0,.75.66l.07,0,0,.06a1.35,1.35,0,0,0,.26.44c.06.06.1.12.15.16s.13.13.13.44a.68.68,0,0,0,.24.55,1.38,1.38,0,0,0,1.14.13l.2,0a.54.54,0,0,1,.55.29.67.67,0,0,0,.85.37c.15,0,.21,0,.31,0a.78.78,0,0,0,.49.18.65.65,0,0,0,.19,0c.41-.12.73-.6,1-1.56.09-.28.32-.45.85-.61a1.21,1.21,0,0,0-.56.6.47.47,0,0,0,.09.57c.25.21.51,0,.7-.06s.59-.35.84-.25a2.2,2.2,0,0,1,.51.3l0,0s0,0,0,.06a.59.59,0,0,1-.28.15c-.36.06-1.45-.09-1.51.36a1.07,1.07,0,0,0,.3,1,1.06,1.06,0,0,1,.32.57c.08.3.34-.3.55,0s.28-.13.47.11.83.4.72.08-.72-1.19-.55-1.34l.18-.18,0,0A1.92,1.92,0,0,0,47.45,35.56ZM44.8,24.83,45,25c.27.36,1.52,2.43,1.95,3.21A11.91,11.91,0,0,0,48.24,30c.17.2.31.38.37.46a1.21,1.21,0,0,1,.15.33.74.74,0,0,1-.46.24,1,1,0,0,1-.73-.3.93.93,0,0,0-.54-.11,3.61,3.61,0,0,1-.44,0,1.35,1.35,0,0,1,.18-.27.4.4,0,0,0-.07-.56.4.4,0,0,0-.55.07c-.13.16-.53.66-.31,1.12s.67.45,1,.46l-.1,0a5.31,5.31,0,0,1-1.52.55,3.58,3.58,0,0,0-2,.94l-.1.09a1.06,1.06,0,0,0-.53-.07h-.13a.85.85,0,0,0-.61-.15h0a.81.81,0,0,0-.9-.47,2.25,2.25,0,0,1-1.12-.51,3.27,3.27,0,0,1-.18-.33,2.38,2.38,0,0,0-.51-.77,1.49,1.49,0,0,1-.1-.52c0-.6-.7-.69-1-.74l-.18,0a1.26,1.26,0,0,0-1,.22.8.8,0,0,0-.29.62A.67.67,0,0,0,37,31a1.62,1.62,0,0,0,0,1.41,2.55,2.55,0,0,1,.08.28.65.65,0,0,0,.09.55s0,.08-.06.09-.45,0-1-.49a10.68,10.68,0,0,0-1.06-.87,3.35,3.35,0,0,1-.74-.67,1.46,1.46,0,0,1-.27-1.15.65.65,0,0,1,.38-.48,2.43,2.43,0,0,1,1.77.2h0a.41.41,0,0,0,.53-.18.34.34,0,0,0,0-.24.37.37,0,0,0,.23-.12,1.45,1.45,0,0,0,.24-.82.33.33,0,0,0,.37-.27c.06-.25.13-.49.2-.73-.07.39-.13.79-.19,1.18s.67.69.74.21c.1-.69.22-1.37.33-2a.36.36,0,0,0,.22-.44c0-.12,0-.23-.08-.35V26c.06.21.34.18.46,0l.14-.18a.37.37,0,0,0,.62-.37.29.29,0,0,0,0-.09.53.53,0,0,0,.35-.1.53.53,0,0,0,.06.1c.26.42.92,0,.66-.38a1.54,1.54,0,0,1-.15-.32.22.22,0,0,0,.23-.3,2.21,2.21,0,0,1,0-.25h0c0,.13,0,.26.06.39.08.49.81.28.74-.2a1.79,1.79,0,0,1,0-.4.23.23,0,0,0,.15-.11l.13-.23a1,1,0,0,0,.07.23.52.52,0,0,0,.9,0,1.72,1.72,0,0,0,.29-1h.1c.12.3.26.6.41.89a.25.25,0,0,0,.15.12A3.33,3.33,0,0,0,44.8,24.83Z"/><path class="cls-3" d="M32.26,40.29a6.79,6.79,0,0,0,.53-3.2c0-.75.14-1.47.16-2.23a24.53,24.53,0,0,1,.13-2.72c.06-.48-.36-.68-.43-.2-.2,1.51-.08,3.06-.26,4.58-.12,1.06.07,2.41-.44,3.23C31.74,40.08,32.05,40.62,32.26,40.29Z"/><path class="cls-3" d="M32.68,30a.39.39,0,0,0-.77,0c0,.13,0,.26,0,.4a.38.38,0,0,0-.6.3c0,.35,0,.7,0,1.06a.7.7,0,0,0-.19-.27.4.4,0,0,0-.6.08,2.56,2.56,0,0,0-.33.9.38.38,0,0,0-.67.31.36.36,0,0,0-.22.2s0,0,0,0c-.17-.46-.91-.26-.74.2a1.59,1.59,0,0,1,.07.2.35.35,0,0,0-.43.26,8.58,8.58,0,0,0-.23,1.52,4,4,0,0,1-.24,1.45,8.06,8.06,0,0,0-.72,2.7.11.11,0,0,0-.07.08,2,2,0,0,0,0,1,.11.11,0,0,0,.13.09h0c-.37,1.75-.82,3.48-1.15,5.24,0,.16.22.23.25.07.32-1.77.78-3.51,1.15-5.27a2.19,2.19,0,0,0,.36-.81.27.27,0,0,0,.09-.12h0a2.81,2.81,0,0,0,0,1.12.25.25,0,0,0,.49,0c0-.2.1-.4.16-.6a.22.22,0,0,0,.05-.08c.22-.47.5-.9.68-1.39a8.16,8.16,0,0,0,.26-.88l.18-.44c0,.09,0,.17,0,.25a10.11,10.11,0,0,1-.75,2.21.23.23,0,0,0-.12.16,2.48,2.48,0,0,0,0,1.24c.08.22.46.28.5,0a3.35,3.35,0,0,1,.27-.92.22.22,0,0,0,0-.11,9,9,0,0,0,.66-1.79l-.06.4a5.4,5.4,0,0,0-.23.9.28.28,0,0,0-.05.11,1.43,1.43,0,0,0,.21,1,.23.23,0,0,0,0,.11,2.5,2.5,0,0,1,.23.7.26.26,0,0,0,.24.19.26.26,0,0,0,.25-.18.88.88,0,0,0,0-.4.22.22,0,0,0,0-.27,2.54,2.54,0,0,1,0-1.78,5.39,5.39,0,0,1,.61-1.54.19.19,0,0,0,0-.2A20.16,20.16,0,0,0,31.94,35,22.17,22.17,0,0,0,32.68,30Zm-3.87,5.11h-.08c0-.18,0-.36.05-.54Z"/><path class="cls-3" d="M41.2,20.82c.07-.85-.65-.81-1.3-.94a15.54,15.54,0,0,0-1.63-.41c-.79-.07-1.58-.17-2.37-.22a7.47,7.47,0,0,0-1.89,0,15.61,15.61,0,0,0-1.53.55c-.28.08-.6,0-.88.06a2.39,2.39,0,0,0-.78.3,3.71,3.71,0,0,0-1,1.05c-.36.5-1,.78-1.32,1.28s-.22,1.24-.65,1.71-.84.6-1.18,1a3.62,3.62,0,0,0-.63,1.65,8.17,8.17,0,0,0,.16,3.84,3.66,3.66,0,0,0,1.63,2v.16c0,.34.47.32.51,0a3,3,0,0,0,.06-.85,1.23,1.23,0,0,0,.55.07,1.34,1.34,0,0,0,.53-.21c.16-.13.32-.49.5-.55A.25.25,0,0,0,30.2,31c-.06-.17-.13-.33-.2-.5l.17.1c.13.07.35,0,.37-.15a1.79,1.79,0,0,0,0-.61.69.69,0,0,0,.91-.13.27.27,0,0,0,0-.31l-.1-.12h0a.24.24,0,0,0-.07-.18.24.24,0,0,0,.23-.32,1,1,0,0,0-.09-.21l.19.12A.27.27,0,0,0,32,28.6a.68.68,0,0,0,.07-.87,1.11,1.11,0,0,0,.47.14.22.22,0,0,0,.24-.24l0,0c.16.06.31-.1.32-.24a2,2,0,0,0-.06-.56.26.26,0,0,0,.43-.1,1.64,1.64,0,0,0,.12-.4.61.61,0,0,0,.58-.17.26.26,0,0,0,0-.39h0l0,.06c.16.18.41,0,.43-.18,0,0,0-.06,0-.08.17,0,.32,0,.4-.26a1.22,1.22,0,0,0,0-.6.47.47,0,0,0,.1.1c.12.09.33.11.4-.05a2,2,0,0,1,.11-.2.18.18,0,0,0,.05.07.25.25,0,0,0,.44,0h0a.22.22,0,0,0,.11-.27.24.24,0,0,0,.37-.08,2.43,2.43,0,0,0,.19-.73.24.24,0,0,0,.28-.12,2,2,0,0,0,.17-.61h0a.26.26,0,0,0,.5-.07V22.6a.26.26,0,0,0,.31,0,.26.26,0,0,0,0-.36h0s0,0,0,0h0a1.48,1.48,0,0,0,.28.28.26.26,0,0,0,.38-.16.87.87,0,0,0,0-.28.26.26,0,0,0,.3-.19,1.31,1.31,0,0,0,0-.34,1.35,1.35,0,0,0,.35.14.26.26,0,0,0,.32-.18,1.55,1.55,0,0,0,0-.64.94.94,0,0,1,.64,0c.2.09.35.31.54.42s.53-.27.25-.44ZM29.47,31.14c-.42.62-.92.43-1.38,0a5,5,0,0,1-.4-1.07,5.17,5.17,0,0,1,.36-4.15c.18-.27-.26-.52-.44-.25A5.25,5.25,0,0,0,27,29.47a6,6,0,0,0,.53,1.85,5.19,5.19,0,0,1,.35.66.32.32,0,0,1,0,.14,7.81,7.81,0,0,1-.64-.53c-.87-.77-.92-2.42-.88-3.48a7.57,7.57,0,0,1,.33-1.89A2.83,2.83,0,0,1,28,24.83a1.65,1.65,0,0,0,.63-.75c.2-.61.14-1.07.66-1.55a8.08,8.08,0,0,0,1.07-1,2.54,2.54,0,0,1,1.2-1.07,3.75,3.75,0,0,1,.88-.08,2.84,2.84,0,0,0,.77-.22,4,4,0,0,1,1.31-.38,28.37,28.37,0,0,1,3.79.24.22.22,0,0,0,.12.2.72.72,0,0,1,.3.3l-.09-.06a2.48,2.48,0,0,0-1.18-.21.25.25,0,0,0-.07.5c.18.06.44.13.68.23a.38.38,0,0,0-.11.08.62.62,0,0,0-.15.29.75.75,0,0,0-.23,0,.26.26,0,0,0-.25.32,1.12,1.12,0,0,1,.07.4L37.28,22a.26.26,0,0,0-.38.15c0,.13,0,.26,0,.39a1.86,1.86,0,0,0-.3-.79c-.19-.26-.62,0-.44.26a1.46,1.46,0,0,1,.16.36v0l0,.08a3,3,0,0,1,.08.79c-.17-.32-.41-.58-.76-.49s-.31.71-.15,1.21l-.05.06-.12.19a5.88,5.88,0,0,1-.29-.62.26.26,0,0,0-.44,0,1.43,1.43,0,0,0-.05.74c0,.17,0,.35.05.53a.13.13,0,0,1,0,.06.23.23,0,0,0-.24.06c-.06-.2-.11-.41-.18-.58a.26.26,0,0,0-.4-.05,1.7,1.7,0,0,0-.39.74c-.16-.08-.39,0-.37.2a1.77,1.77,0,0,0,.13.55,1,1,0,0,1,0,.34,2.82,2.82,0,0,0-.51-.38.26.26,0,0,0-.38.16A.25.25,0,0,0,32,26a.63.63,0,0,0-.37.75l-.21-.24a.26.26,0,0,0-.44.18,1.14,1.14,0,0,0,.24.85c.19.23.44.37.42.6a3.8,3.8,0,0,1-.61-.53.26.26,0,0,0-.43.18.49.49,0,0,0,0,.12s0,0,0,0a.83.83,0,0,0-.71-.34.26.26,0,0,0-.23.38,1.49,1.49,0,0,1,0,.81.25.25,0,0,0,.25.25.91.91,0,0,0,0,.17.11.11,0,0,0,0,.06.22.22,0,0,0-.1.27,2.13,2.13,0,0,1,.13.46,2.52,2.52,0,0,1-.53-1.06.25.25,0,0,0-.5.06A5.72,5.72,0,0,0,29.64,31,1.08,1.08,0,0,0,29.47,31.14Zm6.4-7.85h0Zm-5.4,5.2a.26.26,0,0,0-.2-.1.88.88,0,0,0,0-.23,2.05,2.05,0,0,1,.24.32Z"/><polygon class="cls-3" points="28.24 15.83 28.24 14.18 26.74 14.18 26.74 15.83 27.16 15.83 27.16 14.46 27.82 14.46 27.82 15.83 28.24 15.83"/><path class="cls-3" d="M30.78,15a.75.75,0,0,0-.85-.86c-.65,0-.84.37-.84.86s.19.86.84.86S30.78,15.5,30.78,15Zm-1.25,0c0-.36.06-.61.4-.61s.41.25.41.61-.07.61-.41.61S29.53,15.37,29.53,15Z"/><polygon class="cls-3" points="31.53 15.83 32.95 15.83 32.95 15.55 32.04 15.55 32.49 14.96 32.08 14.45 32.9 14.45 32.9 14.18 31.57 14.18 31.57 14.44 31.99 14.96 31.53 15.57 31.53 15.83"/><polygon class="cls-3" points="35.01 14.45 35.01 14.18 33.75 14.18 33.75 15.83 35.04 15.83 35.04 15.55 34.17 15.55 34.17 15.11 34.96 15.11 34.96 14.84 34.17 14.84 34.17 14.45 35.01 14.45"/><rect class="cls-3" x="35.9" y="14.18" width="0.43" height="1.65"/><path class="cls-3" d="M38.23,14.18h-.52l-.64,1.65h1.79Zm-.26.31h0l.36,1.07h-.74Z"/><path class="cls-3" d="M40.32,15.53c-.2,0-.3-.23-.3-.57s.12-.57.41-.57.41.2.41.57-.11.53-.3.57v.3h.76v-.28H41a.73.73,0,0,0,.24-.61.85.85,0,0,0-1.7,0,.73.73,0,0,0,.24.61h-.27v.27h.77Z"/><polygon class="cls-3" points="42.55 14.56 42.55 14.56 43.21 15.83 43.76 15.83 43.76 14.18 43.37 14.18 43.37 15.39 43.36 15.39 42.72 14.18 42.15 14.18 42.15 15.83 42.55 15.83 42.55 14.56"/><path class="cls-3" d="M40.1,58.6c-.44,0-.48.46-.42,1.06s.17,1,.61,1,.48-.45.42-1.06S40.54,58.56,40.1,58.6Z"/><path class="cls-3" d="M49.34,57.64c.11.29.28.65.67.58l-.51-1.47C49.14,57,49.24,57.35,49.34,57.64Z"/><path class="cls-3" d="M50,56.57,50.53,58c.36-.2.26-.6.16-.89S50.41,56.5,50,56.57Z"/><polygon class="cls-3" points="52.87 55.38 53.07 56.62 53.66 56.35 52.87 55.38 52.87 55.38"/><polygon class="cls-3" points="35.14 58.95 34.8 60.15 35.44 60.16 35.15 58.95 35.14 58.95"/><polygon class="cls-3" points="7.27 49.25 7.92 49.96 8.92 48.41 8.91 48.4 7.27 49.25"/><path class="cls-3" d="M35.61,10.47h0Z"/><path class="cls-3" d="M17,54.36c-.39-.2-.65.12-.93.66s-.41.93,0,1.13.66-.11.94-.65S17.44,54.57,17,54.36Z"/><polygon class="cls-3" points="28.92 58.41 28.41 59.55 29.05 59.65 28.93 58.41 28.92 58.41"/><path class="cls-3" d="M69.09,27s1.46,5.86-.24,10.2-4.09.94-4.68.17-.51-2.64-2.38-3-4,4.34-5.28,7.75A41.55,41.55,0,0,1,51.06,52c-1.78,2.21-3.06,2.21-3.57.76s1.36-4.42,1.7-5.36a2.23,2.23,0,0,0-1-3.06c-1.53-.77-4.09.51-5.11,1.28-3.4,1.87-5.53,4.76-8.51,5-1.7.34-1.19-1.79-1.19-3.66s-1.87-1.36-3.83.34-4.42,4.17-5.62,4.25-1.78-1.1-2.55-4.34-1.87-6.81-4.08-8.85-4.77-.51-8.09.6c-3.91,1.78-10.81-1-3-14.3,8.54-13.53,27.41-14.18,29.4-14.21C15.93,10.54,0,22.19,0,36.55S16,62.64,35.79,62.64,71.57,51,71.57,36.55A20,20,0,0,0,69.09,27ZM6.48,49.06l2.59-1.24.45.49L8.06,50.77ZM10,52.52l.79-.92-.62-.54L9.38,52,9,51.62l1.79-2.08.42.36-.7.81.62.53.7-.81.42.37-1.79,2.08Zm3.78,2.76L13.35,55l1.28-1.89h0l-1.78,1.55-.37-.25.79-2.22h0L12,54.06l-.43-.29,1.54-2.28.72.49-.72,1.89h0l1.51-1.36.71.48Zm3.76.49c-.39.73-.89,1.15-1.64.76s-.69-1.05-.3-1.78.89-1.15,1.63-.76S17.92,55,17.54,55.77Zm3,.3-1-.42.16,1-.92.69,1.08.46-.17.42L18,57.49l.17-.39.94-.71-.17-1,.17-.4,1.59.67Zm5.77,4.14-.53-.13.53-2.22-.83-.2-.53,2.22-.54-.13L25,57.08l1.9.45Zm2.89.51-.07-.6L28.22,60l-.25.55-.55-.09,1.26-2.58.66.11.38,2.84Zm3.26.36c0-.35-.25-1.32-.39-2.28h0c-.32.93-.69,1.84-.8,2.18l-.55,0,1.07-2.67.67.06L33,61.13Zm3.29.12-.15-.58h-.89l-.16.58H34l.88-2.74h.67l.77,2.76Zm1.7,0-.11-2.74.56,0L38,61.15ZM40.33,61c-.84.08-1.15-.5-1.23-1.32s.11-1.45.95-1.53,1.15.49,1.23,1.32S41.18,61,40.33,61Zm3.52-.54-.55.09-.17-1L42.05,58l.63-.11L43.32,59h0l.26-1.22.57-.1-.48,1.87Zm6.82-2.08.08.25-.52.18-.08-.25a1.2,1.2,0,0,1-.79-2.23l0-.12.52-.18,0,.12a1.2,1.2,0,0,1,.79,2.23Zm3.67-1.24L54,56.71l-.8.37.1.6-.51.23-.38-2.85.61-.28,1.89,2.16Zm2.92-1.55c-.23-.27-.95-1-1.61-1.66h0c.27,1,.47,1.91.58,2.25l-.48.27-.64-2.8.58-.33,2.08,2ZM59.9,53.9l-.7-1-.68.48.7,1-.45.32-1.59-2.25.46-.32.61.88.67-.47-.62-.88.46-.32,1.59,2.25Zm1.56-1.2-1.81-2.08.67-.57a.84.84,0,1,1,1.12,1.24l-.27.23.71.81Zm3-2.81c-.57.63-1.19.4-1.8-.15s-.89-1.15-.32-1.78,1.19-.4,1.8.16S65.06,49.27,64.49,49.89Zm1.91-2.43-.81-.57-1.9-.36.37-.52,1.21.3h0l-.68-1,.33-.48,1,1.66.81.57Z"/><path class="cls-3" d="M63.78,48.54c-.44-.4-.8-.63-1.1-.3s0,.66.4,1.07.8.63,1.1.3S64.23,49,63.78,48.54Z"/><path class="cls-3" d="M61.13,50.46a.37.37,0,0,0-.6,0l-.17.16.53.6.15-.13,0,0A.35.35,0,0,0,61.13,50.46Z"/></g></g></g></g></svg>