<svg xmlns="http://www.w3.org/2000/svg" viewBox="0 0 185.84 50.71"><g id="Layer_2" data-name="Layer 2"><g id="artworks"><polygon points="9.17 21.86 6.17 21.86 0 37.95 2.91 37.95 7.62 24.63 7.69 24.63 12.35 37.95 15.37 37.95 9.17 21.86 9.17 21.86"/><polygon points="26.55 9.27 23.39 9.27 19.2 16.48 14.94 9.27 11.68 9.27 17.71 19.05 17.71 25.36 20.53 25.36 20.53 19.05 26.55 9.27 26.55 9.27"/><path d="M33.87,42.22V36.9H38A5.07,5.07,0,0,1,39.1,37a2.12,2.12,0,0,1,.88.42,2.06,2.06,0,0,1,.61.82,3.32,3.32,0,0,1,.22,1.31,2.82,2.82,0,0,1-.25,1.27,2.27,2.27,0,0,1-.68.81,2.84,2.84,0,0,1-.91.44,3.73,3.73,0,0,1-1,.14Zm4.29-7.62h-7.1V50.69h2.81V44.52h4.29A6.91,6.91,0,0,0,41,44a4.34,4.34,0,0,0,1.67-1.22,4.39,4.39,0,0,0,.8-1.62,6.85,6.85,0,0,0,.21-1.61A6.93,6.93,0,0,0,43.42,38a4.24,4.24,0,0,0-.8-1.62A4.5,4.5,0,0,0,41,35.09a6.91,6.91,0,0,0-2.79-.49"/><polygon points="46.88 12.73 44.06 12.73 44.06 28.82 46.88 28.82 46.88 12.73 46.88 12.73"/><polygon points="70.48 21.86 67.01 21.86 59.85 29.18 59.85 21.86 57.03 21.86 57.03 37.95 59.85 37.95 59.85 32.54 62.15 30.27 67.42 37.95 70.94 37.95 64.06 28.29 70.48 21.86 70.48 21.86"/><path d="M79.05,14.58a4.44,4.44,0,0,1-2.22-.52,4.39,4.39,0,0,1-1.52-1.38,6.34,6.34,0,0,1-.87-2,9.18,9.18,0,0,1,0-4.5,6.19,6.19,0,0,1,.87-2,4.32,4.32,0,0,1,1.52-1.39,4.44,4.44,0,0,1,2.22-.52,4.5,4.5,0,0,1,2.22.52,4.32,4.32,0,0,1,1.52,1.39,6.19,6.19,0,0,1,.87,2,9.18,9.18,0,0,1,0,4.5,6.34,6.34,0,0,1-.87,2,4.39,4.39,0,0,1-1.52,1.38,4.5,4.5,0,0,1-2.22.52M79.05,0A7.54,7.54,0,0,0,75.81.7a7.32,7.32,0,0,0-2.42,1.82A8.12,8.12,0,0,0,71.87,5.2a10,10,0,0,0-.53,3.25,10,10,0,0,0,.53,3.27,8.12,8.12,0,0,0,1.52,2.68,7,7,0,0,0,2.42,1.81,7.54,7.54,0,0,0,3.24.67,7.46,7.46,0,0,0,3.23-.67,7.07,7.07,0,0,0,2.43-1.81,8.3,8.3,0,0,0,1.52-2.68,10,10,0,0,0,.53-3.27,10,10,0,0,0-.53-3.25,8.3,8.3,0,0,0-1.52-2.68A7.36,7.36,0,0,0,82.28.7,7.47,7.47,0,0,0,79.05,0"/><polygon points="95.04 34.62 83.45 34.62 83.45 36.65 89.18 42.35 83.45 48.39 83.45 50.71 95.2 50.71 95.2 48.28 86.81 48.28 92.38 42.26 87.13 37.06 95.04 37.06 95.04 34.62 95.04 34.62"/><polygon points="121.48 12.73 118.79 12.73 118.79 24.59 118.75 24.59 111.4 12.73 108.43 12.73 108.43 28.82 111.11 28.82 111.11 16.99 111.18 16.99 118.5 28.82 121.48 28.82 121.48 12.73 121.48 12.73"/><path d="M136.68,14.56a4.5,4.5,0,0,1-2.22-.52,4.41,4.41,0,0,1-1.52-1.39,6.05,6.05,0,0,1-.86-2,8.91,8.91,0,0,1,0-4.51,6.15,6.15,0,0,1,.86-2,4.29,4.29,0,0,1,1.52-1.38,4.5,4.5,0,0,1,2.22-.52,4.44,4.44,0,0,1,2.22.52,4.32,4.32,0,0,1,1.53,1.38,6.15,6.15,0,0,1,.86,2,9.22,9.22,0,0,1,0,4.51,6.05,6.05,0,0,1-.86,2,4.33,4.33,0,0,1-3.75,1.91m0-14.56a7.33,7.33,0,0,0-3.23.68A7.09,7.09,0,0,0,131,2.5a8.12,8.12,0,0,0-1.52,2.68A9.72,9.72,0,0,0,129,8.43a9.79,9.79,0,0,0,.53,3.27A8.12,8.12,0,0,0,131,14.38a7.06,7.06,0,0,0,2.42,1.81,8.14,8.14,0,0,0,6.47,0,7.16,7.16,0,0,0,2.42-1.81,8.12,8.12,0,0,0,1.52-2.68,10.05,10.05,0,0,0,.53-3.27,10,10,0,0,0-.53-3.25,8.12,8.12,0,0,0-1.52-2.68A7.19,7.19,0,0,0,139.92.68,7.37,7.37,0,0,0,136.68,0"/><polygon points="150.56 34.6 137.53 34.6 137.53 37.03 142.62 37.03 142.62 50.69 145.44 50.69 145.44 37.03 150.56 37.03 150.56 34.6 150.56 34.6"/><path d="M163.61,35.73a4.32,4.32,0,0,1-3.74-1.9,6.1,6.1,0,0,1-.86-2,9.18,9.18,0,0,1,0-4.5,6.1,6.1,0,0,1,.86-2A4.38,4.38,0,0,1,161.39,24a5,5,0,0,1,4.45,0,4.29,4.29,0,0,1,1.52,1.38,6.34,6.34,0,0,1,.87,2,9.18,9.18,0,0,1,0,4.5,6.34,6.34,0,0,1-.87,2,4.39,4.39,0,0,1-1.52,1.38,4.51,4.51,0,0,1-2.23.52m0-14.56a7.5,7.5,0,0,0-3.23.68A7.32,7.32,0,0,0,158,23.67a8.12,8.12,0,0,0-1.52,2.68,10.29,10.29,0,0,0,0,6.52A8.12,8.12,0,0,0,158,35.55a7,7,0,0,0,2.42,1.81,8.14,8.14,0,0,0,6.47,0,7,7,0,0,0,2.42-1.81,8.12,8.12,0,0,0,1.52-2.68,10.29,10.29,0,0,0,0-6.52,8.12,8.12,0,0,0-1.52-2.68,7.32,7.32,0,0,0-2.42-1.82,7.51,7.51,0,0,0-3.24-.68"/><polygon points="185.81 34.6 174.23 34.6 174.23 36.63 179.96 42.33 174.23 48.37 174.23 50.69 185.84 50.69 185.84 48.26 177.59 48.26 183.16 42.24 177.9 37.03 185.81 37.03 185.81 34.6 185.81 34.6"/></g></g></svg>