<svg xmlns="http://www.w3.org/2000/svg" viewBox="0 0 156.3 50.79"><defs><style>.cls-1{isolation:isolate;}.cls-2{mix-blend-mode:multiply;}.cls-3{fill:#edece3;}.cls-4{fill:#231f20;}.cls-5{font-size:8.75px;fill:#fff;font-family:CFPanoptik-Medium, CFPanoptik Medium;font-weight:500;}.cls-6{letter-spacing:-0.01em;}.cls-7{letter-spacing:0em;}.cls-8{letter-spacing:-0.01em;}.cls-9{letter-spacing:-0.01em;}.cls-10{letter-spacing:0em;}.cls-11{letter-spacing:-0.01em;}</style></defs><g class="cls-1"><g id="Layer_2" data-name="Layer 2"><g id="artworks"><g class="cls-2"><rect class="cls-3" width="50.79" height="50.79"/><rect class="cls-3" x="52.75" width="50.79" height="50.79"/><rect class="cls-3" x="105.51" width="50.79" height="50.79"/><rect class="cls-4" width="50.79" height="50.79"/><rect class="cls-4" x="105.51" width="50.79" height="50.79"/><text class="cls-5" transform="translate(12.35 17.1)">Εθνική <tspan x="-0.85" y="10.5">Λ</tspan><tspan class="cls-6" x="4.48" y="10.5">υ</tspan><tspan class="cls-7" x="9.01" y="10.5">ρική </tspan><tspan x="0.73" y="21.01">Σκ</tspan><tspan class="cls-8" x="9.88" y="21.01">η</tspan><tspan x="14.63" y="21.01">νή </tspan></text><text class="cls-5" transform="translate(116.53 17.1)">G<tspan class="cls-9" x="5.66" y="0">r</tspan><tspan x="8.43" y="0">eek </tspan><tspan x="-3.84" y="10.5">N</tspan><tspan class="cls-10" x="1.92" y="10.5">a</tspan><tspan x="6.11" y="10.5">tional</tspan><tspan x="0.36" y="21.01">Ope</tspan><tspan class="cls-11" x="15.76" y="21.01">r</tspan><tspan class="cls-7" x="18.58" y="21.01">a</tspan></text><path class="cls-4" d="M52.75,0V12.87c.46.32.83.75,1.28,1.08a41.63,41.63,0,0,0,7.68,4.57,22.88,22.88,0,0,0,8.84,2.36,24.4,24.4,0,0,0,6.72,0,16.82,16.82,0,0,0,3.61-.37,46.71,46.71,0,0,0,8-2c5.08-1.73,9.76-4.34,14.5-6.82l0,0v1.17l-.18.09c-1.1.64-2.23,1.2-3.36,1.79-5.65,3-11.37,5.81-17.7,7.09-1.32.27-2.63.63-4,.8-.75.09-1.52.08-2.29.13A30.86,30.86,0,0,1,64,21.6a38.7,38.7,0,0,1-11.08-5.84l-.16-.12V19l.09,0c6,3,12.26,5.09,19.08,5a50.78,50.78,0,0,0,6.29-.19,3.28,3.28,0,0,0,1.58-.18,42.28,42.28,0,0,0,8.74-1.34c5.08-1.19,10-3,14.88-4.71v1.9l-.15,0c-3.05,1.07-6.12,2.09-9.18,3.13a69.87,69.87,0,0,1-17.73,3.39,43.22,43.22,0,0,1-21.26-3.71l-2.34-1.08v3.44l.07,0a70.78,70.78,0,0,0,13.79,2.28c4.49.36,9,.19,13.5.13a5.62,5.62,0,0,0,.7-.1,11.63,11.63,0,0,0,3-.2,3.38,3.38,0,0,0,.45,0,106.72,106.72,0,0,0,11.56-1.16c2.45-.35,4.87-.86,7.29-1.38a1.32,1.32,0,0,0,.3-.09v2c-1.76.49-3.55.8-5.34,1.13-3.11.58-6.24.92-9.38,1.24-1.94.19-3.88.32-5.82.48a33.45,33.45,0,0,0-4.48.22H76.61c-3.49,0-7,.07-10.46-.28a73.31,73.31,0,0,1-13.4-2.27v4h.15c2.37-.06,4.74,0,7.1-.07a20.09,20.09,0,0,0,3.1-.11H91.88c3.84.25,7.68.13,11.53.2v1.74H97.35c-3.71-.23-7.43-.18-11.15-.18-1.91-.17-3.83-.11-5.74-.12-3.54,0-7.08-.06-10.62.12-3.52,0-7,0-10.55.06-2,0-3.95.08-5.93.12l-.61,0v3.89l.41-.08A121.27,121.27,0,0,1,65.28,34.3c1.64-.19,3.29-.3,4.93-.45H74.8a41.3,41.3,0,0,0,4.85.17,17.33,17.33,0,0,0,3.67.22c1,.11,2.05.25,3.07.33A87.32,87.32,0,0,1,96.72,36c2.17.43,4.33.9,6.49,1.39l.2,0v2l-.13,0a137.16,137.16,0,0,0-16.73-2.83A55,55,0,0,0,80,36.14a3,3,0,0,0-.59-.14c-3.41-.18-6.83-.23-10.24-.1a5,5,0,0,0-2,.25c-.44,0-.89,0-1.33.06a130.9,130.9,0,0,0-13.06,2.22h0V50.79h50.8V0Z"/></g></g></g></g></svg>