<svg xmlns="http://www.w3.org/2000/svg" viewBox="0 0 412 3527.43"><defs><style>.cls-1{fill:#edece3;}.cls-2{fill:#d3ffff;}.cls-3{fill:#d5fffb;}.cls-4{fill:#d6fff8;}.cls-5{fill:#d8fff4;}.cls-6{fill:#87ffff;}.cls-7{fill:#66deff;}.cls-8{fill:#66de66;}.cls-9{fill:#ff99f9;}.cls-10{fill:#95d2ea;}.cls-11{fill:#94d9da;}.cls-12{fill:#92e8ba;}.cls-13{fill:#ffb6a5;}.cls-14{fill:#ffd6cc;}.cls-15{fill:#ffcef9;}.cls-16{fill:#ff0;}.cls-17{fill:#ffef5c;}.cls-18{fill:#ffed9d;}.cls-19{fill:#e4f2b1;}.cls-20{fill:#ffd15c;}.cls-21{fill:#93e1ca;}.cls-22{fill:#b8ffdb;}.cls-23{fill:#d0e8d0;}.cls-24{fill:#e7d0c5;}.cls-25{fill:#ffb9ba;}.cls-26{fill:none;stroke:#000;stroke-linecap:square;stroke-width:0.25px;}</style></defs><g id="Layer_2" data-name="Layer 2"><g id="background"><rect class="cls-1" width="412" height="3527.43"/></g><g id="colors_illustations" data-name="colors illustations"><rect class="cls-2" x="206.2" y="155.15" width="185.85" height="50.19"/><rect class="cls-3" x="206.2" y="256.69" width="185.85" height="50.19"/><rect class="cls-4" x="206.2" y="358.23" width="185.85" height="50.19"/><rect class="cls-5" x="206.2" y="459.77" width="185.85" height="50.19"/><rect class="cls-6" x="20.6" y="117.41" width="185.49" height="12.63"/><rect class="cls-7" x="20.6" y="256.32" width="185.49" height="12.63"/><rect class="cls-7" x="20.6" y="420.78" width="185.49" height="12.63"/><rect class="cls-7" x="20.6" y="585.24" width="185.49" height="12.63"/><rect class="cls-8" x="206.39" y="357.74" width="185.83" height="12.63"/><rect class="cls-8" x="206.39" y="459.04" width="185.83" height="12.63"/><rect class="cls-8" x="206.39" y="560.35" width="185.83" height="12.63"/><rect class="cls-8" x="206.39" y="661.65" width="185.83" height="12.63"/><rect class="cls-8" x="206.39" y="762.96" width="185.83" height="12.63"/><rect class="cls-8" x="20.36" y="838.62" width="185.83" height="12.63"/><rect class="cls-8" x="20.36" y="939.92" width="185.83" height="12.63"/><rect class="cls-5" x="20.36" y="1142.3" width="185.83" height="12.63"/><rect class="cls-5" x="20.36" y="1534.96" width="185.83" height="12.63"/><rect class="cls-5" x="20.36" y="1737.42" width="185.83" height="12.63"/><rect class="cls-9" x="20.36" y="1838.49" width="185.83" height="12.63"/><rect class="cls-9" x="20.36" y="1939.92" width="185.83" height="12.63"/><rect class="cls-9" x="20.36" y="2041.24" width="185.83" height="12.63"/><rect class="cls-10" x="20.36" y="2256.41" width="185.83" height="12.63"/><rect class="cls-10" x="20.36" y="2471.58" width="185.83" height="12.63"/><rect class="cls-11" x="20.36" y="2686.76" width="185.83" height="12.63"/><rect class="cls-11" x="20.36" y="2901.93" width="185.83" height="12.63"/><rect class="cls-12" x="20.36" y="3117.1" width="185.83" height="12.63"/><rect class="cls-12" x="20.36" y="3332.27" width="185.83" height="12.63"/><rect class="cls-13" x="206.39" y="864.26" width="185.83" height="12.63"/><rect class="cls-13" x="206.39" y="965.56" width="185.83" height="12.63"/><rect class="cls-13" x="206.39" y="1066.87" width="185.83" height="12.63"/><rect class="cls-14" x="206.39" y="1168.17" width="185.83" height="12.63"/><rect class="cls-14" x="206.39" y="1269.48" width="185.83" height="12.63"/><rect class="cls-15" x="206.39" y="1370.78" width="185.83" height="12.63"/><rect class="cls-15" x="206.39" y="1472.08" width="185.83" height="12.63"/><rect class="cls-15" x="206.39" y="1573.39" width="185.83" height="12.63"/><rect class="cls-16" x="206.39" y="1674.69" width="185.83" height="12.63"/><rect class="cls-16" x="206.39" y="1776" width="185.83" height="12.63"/><rect class="cls-16" x="206.39" y="1877.3" width="185.83" height="12.63"/><rect class="cls-16" x="206.39" y="1978.6" width="185.83" height="12.63"/><rect class="cls-16" x="206.39" y="2079.91" width="185.83" height="12.63"/><rect class="cls-17" x="206.39" y="2181.21" width="185.83" height="12.63"/><rect class="cls-17" x="206.39" y="2282.52" width="185.83" height="12.63"/><rect class="cls-17" x="206.39" y="2383.82" width="185.83" height="12.63"/><rect class="cls-18" x="206.39" y="2485.12" width="185.83" height="12.63"/><rect class="cls-18" x="206.39" y="2586.43" width="185.83" height="12.63"/><rect class="cls-18" x="206.39" y="2687.73" width="185.83" height="12.63"/><rect class="cls-18" x="206.39" y="2789.04" width="185.83" height="12.63"/><rect class="cls-19" x="206.39" y="2890.34" width="185.83" height="12.63"/><rect class="cls-19" x="206.39" y="2991.64" width="185.83" height="12.63"/><rect class="cls-19" x="206.39" y="3092.95" width="185.83" height="12.63"/><rect class="cls-20" x="206.39" y="3194.25" width="185.83" height="12.63"/><rect class="cls-20" x="206.39" y="3295.55" width="185.83" height="12.63"/><rect class="cls-10" x="20.55" y="2320.32" width="185.85" height="50.19"/><rect class="cls-11" x="20.55" y="2421.86" width="185.85" height="50.19"/><rect class="cls-21" x="20.55" y="2523.4" width="185.85" height="50.19"/><rect class="cls-12" x="20.55" y="2624.94" width="185.85" height="50.19"/><rect class="cls-22" x="20.33" y="990.2" width="185.85" height="50.19"/><rect class="cls-23" x="20.33" y="1091.74" width="185.85" height="50.19"/><rect class="cls-24" x="20.33" y="1193.28" width="185.85" height="50.19"/><rect class="cls-25" x="20.33" y="1294.82" width="185.85" height="50.19"/></g><g id="artworks"><line class="cls-26" x1="399.47" y1="167.87" x2="399.47" y2="117.24"/><polyline class="cls-26" points="399.47 167.87 399.47 167.87 13.11 167.87 13.11 117.24 399.47 117.24"/><line class="cls-26" x1="13.11" y1="155.21" x2="399.47" y2="155.21"/><line class="cls-26" x1="13.11" y1="142.55" x2="399.47" y2="142.55"/><line class="cls-26" x1="13.11" y1="129.9" x2="399.47" y2="129.9"/><line class="cls-26" x1="20.39" y1="167.87" x2="20.39" y2="117.24"/><line class="cls-26" x1="206.29" y1="167.87" x2="206.29" y2="117.24"/><line class="cls-26" x1="392.18" y1="167.87" x2="392.18" y2="117.24"/><line class="cls-26" x1="399.47" y1="269.13" x2="399.47" y2="218.51"/><polyline class="cls-26" points="399.47 269.13 399.47 269.13 13.11 269.13 13.11 218.51 399.47 218.51"/><line class="cls-26" x1="13.11" y1="256.47" x2="399.47" y2="256.47"/><line class="cls-26" x1="13.11" y1="243.82" x2="399.47" y2="243.82"/><line class="cls-26" x1="13.11" y1="231.16" x2="399.47" y2="231.16"/><line class="cls-26" x1="20.39" y1="269.13" x2="20.39" y2="218.51"/><line class="cls-26" x1="206.29" y1="269.13" x2="206.29" y2="218.51"/><line class="cls-26" x1="392.18" y1="269.13" x2="392.18" y2="218.51"/><line class="cls-26" x1="399.47" y1="370.39" x2="399.47" y2="319.77"/><polyline class="cls-26" points="399.47 370.39 399.47 370.39 13.11 370.39 13.11 319.77 399.47 319.77"/><line class="cls-26" x1="13.11" y1="357.74" x2="399.47" y2="357.74"/><line class="cls-26" x1="13.11" y1="345.08" x2="399.47" y2="345.08"/><line class="cls-26" x1="13.11" y1="332.43" x2="399.47" y2="332.43"/><line class="cls-26" x1="20.39" y1="370.39" x2="20.39" y2="319.77"/><line class="cls-26" x1="206.29" y1="370.39" x2="206.29" y2="319.77"/><line class="cls-26" x1="392.18" y1="370.39" x2="392.18" y2="319.77"/><line class="cls-26" x1="399.47" y1="471.66" x2="399.47" y2="421.04"/><polyline class="cls-26" points="399.47 471.66 399.47 471.66 13.11 471.66 13.11 421.04 399.47 421.04"/><line class="cls-26" x1="13.11" y1="459" x2="399.47" y2="459"/><line class="cls-26" x1="13.11" y1="446.35" x2="399.47" y2="446.35"/><line class="cls-26" x1="13.11" y1="433.69" x2="399.47" y2="433.69"/><line class="cls-26" x1="20.39" y1="471.66" x2="20.39" y2="421.04"/><line class="cls-26" x1="206.29" y1="471.66" x2="206.29" y2="421.04"/><line class="cls-26" x1="392.18" y1="471.66" x2="392.18" y2="421.04"/><line class="cls-26" x1="399.47" y1="572.92" x2="399.47" y2="522.3"/><polyline class="cls-26" points="399.47 572.92 399.47 572.92 13.11 572.92 13.11 522.3 399.47 522.3"/><line class="cls-26" x1="13.11" y1="560.27" x2="399.47" y2="560.27"/><line class="cls-26" x1="13.11" y1="547.61" x2="399.47" y2="547.61"/><line class="cls-26" x1="13.11" y1="534.96" x2="399.47" y2="534.96"/><line class="cls-26" x1="20.39" y1="572.92" x2="20.39" y2="522.3"/><line class="cls-26" x1="206.29" y1="572.92" x2="206.29" y2="522.3"/><line class="cls-26" x1="392.18" y1="572.92" x2="392.18" y2="522.3"/><line class="cls-26" x1="399.47" y1="674.19" x2="399.47" y2="623.56"/><polyline class="cls-26" points="399.47 674.19 399.47 674.19 13.11 674.19 13.11 623.56 399.47 623.56"/><line class="cls-26" x1="13.11" y1="661.53" x2="399.47" y2="661.53"/><line class="cls-26" x1="13.11" y1="648.88" x2="399.47" y2="648.88"/><line class="cls-26" x1="13.11" y1="636.22" x2="399.47" y2="636.22"/><line class="cls-26" x1="20.39" y1="674.19" x2="20.39" y2="623.56"/><line class="cls-26" x1="206.29" y1="674.19" x2="206.29" y2="623.56"/><line class="cls-26" x1="392.18" y1="674.19" x2="392.18" y2="623.56"/><line class="cls-26" x1="399.47" y1="775.45" x2="399.47" y2="724.83"/><polyline class="cls-26" points="399.47 775.45 399.47 775.45 13.11 775.45 13.11 724.83 399.47 724.83"/><line class="cls-26" x1="13.11" y1="762.8" x2="399.47" y2="762.8"/><line class="cls-26" x1="13.11" y1="750.14" x2="399.47" y2="750.14"/><line class="cls-26" x1="13.11" y1="737.48" x2="399.47" y2="737.48"/><line class="cls-26" x1="20.39" y1="775.45" x2="20.39" y2="724.83"/><line class="cls-26" x1="206.29" y1="775.45" x2="206.29" y2="724.83"/><line class="cls-26" x1="392.18" y1="775.45" x2="392.18" y2="724.83"/><line class="cls-26" x1="399.47" y1="876.72" x2="399.47" y2="826.09"/><polyline class="cls-26" points="399.47 876.72 399.47 876.72 13.11 876.72 13.11 826.09 399.47 826.09"/><line class="cls-26" x1="13.11" y1="864.06" x2="399.47" y2="864.06"/><line class="cls-26" x1="13.11" y1="851.41" x2="399.47" y2="851.41"/><line class="cls-26" x1="13.11" y1="838.75" x2="399.47" y2="838.75"/><line class="cls-26" x1="20.39" y1="876.72" x2="20.39" y2="826.09"/><line class="cls-26" x1="206.29" y1="876.72" x2="206.29" y2="826.09"/><line class="cls-26" x1="392.18" y1="876.72" x2="392.18" y2="826.09"/><line class="cls-26" x1="399.47" y1="977.98" x2="399.47" y2="927.36"/><polyline class="cls-26" points="399.47 977.98 399.47 977.98 13.11 977.98 13.11 927.36 399.47 927.36"/><line class="cls-26" x1="13.11" y1="965.33" x2="399.47" y2="965.33"/><line class="cls-26" x1="13.11" y1="952.67" x2="399.47" y2="952.67"/><line class="cls-26" x1="13.11" y1="940.01" x2="399.47" y2="940.01"/><line class="cls-26" x1="20.39" y1="977.98" x2="20.39" y2="927.36"/><line class="cls-26" x1="206.29" y1="977.98" x2="206.29" y2="927.36"/><line class="cls-26" x1="392.18" y1="977.98" x2="392.18" y2="927.36"/><line class="cls-26" x1="399.47" y1="1079.25" x2="399.47" y2="1028.62"/><polyline class="cls-26" points="399.47 1079.25 399.47 1079.25 13.11 1079.25 13.11 1028.62 399.47 1028.62"/><line class="cls-26" x1="13.11" y1="1066.59" x2="399.47" y2="1066.59"/><line class="cls-26" x1="13.11" y1="1053.93" x2="399.47" y2="1053.93"/><line class="cls-26" x1="13.11" y1="1041.28" x2="399.47" y2="1041.28"/><line class="cls-26" x1="20.39" y1="1079.25" x2="20.39" y2="1028.62"/><line class="cls-26" x1="206.29" y1="1079.25" x2="206.29" y2="1028.62"/><line class="cls-26" x1="392.18" y1="1079.25" x2="392.18" y2="1028.62"/><line class="cls-26" x1="399.47" y1="1180.51" x2="399.47" y2="1129.89"/><polyline class="cls-26" points="399.47 1180.51 399.47 1180.51 13.11 1180.51 13.11 1129.89 399.47 1129.89"/><line class="cls-26" x1="13.11" y1="1167.85" x2="399.47" y2="1167.85"/><line class="cls-26" x1="13.11" y1="1155.2" x2="399.47" y2="1155.2"/><line class="cls-26" x1="13.11" y1="1142.54" x2="399.47" y2="1142.54"/><line class="cls-26" x1="20.39" y1="1180.51" x2="20.39" y2="1129.89"/><line class="cls-26" x1="206.29" y1="1180.51" x2="206.29" y2="1129.89"/><line class="cls-26" x1="392.18" y1="1180.51" x2="392.18" y2="1129.89"/><line class="cls-26" x1="399.47" y1="1281.77" x2="399.47" y2="1231.15"/><polyline class="cls-26" points="399.47 1281.78 399.47 1281.78 13.11 1281.78 13.11 1231.15 399.47 1231.15"/><line class="cls-26" x1="13.11" y1="1269.12" x2="399.47" y2="1269.12"/><line class="cls-26" x1="13.11" y1="1256.46" x2="399.47" y2="1256.46"/><line class="cls-26" x1="13.11" y1="1243.81" x2="399.47" y2="1243.81"/><line class="cls-26" x1="20.39" y1="1281.77" x2="20.39" y2="1231.15"/><line class="cls-26" x1="206.29" y1="1281.77" x2="206.29" y2="1231.15"/><line class="cls-26" x1="392.18" y1="1281.77" x2="392.18" y2="1231.15"/><line class="cls-26" x1="399.47" y1="1383.04" x2="399.47" y2="1332.42"/><polyline class="cls-26" points="399.47 1383.04 399.47 1383.04 13.11 1383.04 13.11 1332.42 399.47 1332.42"/><line class="cls-26" x1="13.11" y1="1370.38" x2="399.47" y2="1370.38"/><line class="cls-26" x1="13.11" y1="1357.73" x2="399.47" y2="1357.73"/><line class="cls-26" x1="13.11" y1="1345.07" x2="399.47" y2="1345.07"/><line class="cls-26" x1="20.39" y1="1383.04" x2="20.39" y2="1332.42"/><line class="cls-26" x1="206.29" y1="1383.04" x2="206.29" y2="1332.42"/><line class="cls-26" x1="392.18" y1="1383.04" x2="392.18" y2="1332.42"/><line class="cls-26" x1="399.47" y1="1484.3" x2="399.47" y2="1433.68"/><polyline class="cls-26" points="399.47 1484.3 399.47 1484.3 13.11 1484.3 13.11 1433.68 399.47 1433.68"/><line class="cls-26" x1="13.11" y1="1471.65" x2="399.47" y2="1471.65"/><line class="cls-26" x1="13.11" y1="1458.99" x2="399.47" y2="1458.99"/><line class="cls-26" x1="13.11" y1="1446.34" x2="399.47" y2="1446.34"/><line class="cls-26" x1="20.39" y1="1484.3" x2="20.39" y2="1433.68"/><line class="cls-26" x1="206.29" y1="1484.3" x2="206.29" y2="1433.68"/><line class="cls-26" x1="392.18" y1="1484.3" x2="392.18" y2="1433.68"/><line class="cls-26" x1="399.47" y1="1585.57" x2="399.47" y2="1534.94"/><polyline class="cls-26" points="399.47 1585.57 399.47 1585.57 13.11 1585.57 13.11 1534.94 399.47 1534.94"/><line class="cls-26" x1="13.11" y1="1572.91" x2="399.47" y2="1572.91"/><line class="cls-26" x1="13.11" y1="1560.26" x2="399.47" y2="1560.26"/><line class="cls-26" x1="13.11" y1="1547.6" x2="399.47" y2="1547.6"/><line class="cls-26" x1="20.39" y1="1585.57" x2="20.39" y2="1534.94"/><line class="cls-26" x1="206.29" y1="1585.57" x2="206.29" y2="1534.94"/><line class="cls-26" x1="392.18" y1="1585.57" x2="392.18" y2="1534.94"/><line class="cls-26" x1="399.47" y1="1686.83" x2="399.47" y2="1636.21"/><polyline class="cls-26" points="399.47 1686.83 399.47 1686.83 13.11 1686.83 13.11 1636.21 399.47 1636.21"/><line class="cls-26" x1="13.11" y1="1674.18" x2="399.47" y2="1674.18"/><line class="cls-26" x1="13.11" y1="1661.52" x2="399.47" y2="1661.52"/><line class="cls-26" x1="13.11" y1="1648.87" x2="399.47" y2="1648.87"/><line class="cls-26" x1="20.39" y1="1686.83" x2="20.39" y2="1636.21"/><line class="cls-26" x1="206.29" y1="1686.83" x2="206.29" y2="1636.21"/><line class="cls-26" x1="392.18" y1="1686.83" x2="392.18" y2="1636.21"/><line class="cls-26" x1="399.47" y1="1788.1" x2="399.47" y2="1737.47"/><polyline class="cls-26" points="399.47 1788.1 399.47 1788.1 13.11 1788.1 13.11 1737.47 399.47 1737.47"/><line class="cls-26" x1="13.11" y1="1775.44" x2="399.47" y2="1775.44"/><line class="cls-26" x1="13.11" y1="1762.79" x2="399.47" y2="1762.79"/><line class="cls-26" x1="13.11" y1="1750.13" x2="399.47" y2="1750.13"/><line class="cls-26" x1="20.39" y1="1788.1" x2="20.39" y2="1737.47"/><line class="cls-26" x1="206.29" y1="1788.1" x2="206.29" y2="1737.47"/><line class="cls-26" x1="392.18" y1="1788.1" x2="392.18" y2="1737.47"/><line class="cls-26" x1="399.47" y1="1889.36" x2="399.47" y2="1838.74"/><polyline class="cls-26" points="399.47 1889.36 399.47 1889.36 13.11 1889.36 13.11 1838.74 399.47 1838.74"/><line class="cls-26" x1="13.11" y1="1876.71" x2="399.47" y2="1876.71"/><line class="cls-26" x1="13.11" y1="1864.05" x2="399.47" y2="1864.05"/><line class="cls-26" x1="13.11" y1="1851.39" x2="399.47" y2="1851.39"/><line class="cls-26" x1="20.39" y1="1889.36" x2="20.39" y2="1838.74"/><line class="cls-26" x1="206.29" y1="1889.36" x2="206.29" y2="1838.74"/><line class="cls-26" x1="392.18" y1="1889.36" x2="392.18" y2="1838.74"/><line class="cls-26" x1="399.47" y1="1990.63" x2="399.47" y2="1940"/><polyline class="cls-26" points="399.47 1990.63 399.47 1990.63 13.11 1990.63 13.11 1940 399.47 1940"/><line class="cls-26" x1="13.11" y1="1977.97" x2="399.47" y2="1977.97"/><line class="cls-26" x1="13.11" y1="1965.31" x2="399.47" y2="1965.31"/><line class="cls-26" x1="13.11" y1="1952.66" x2="399.47" y2="1952.66"/><line class="cls-26" x1="20.39" y1="1990.63" x2="20.39" y2="1940"/><line class="cls-26" x1="206.29" y1="1990.63" x2="206.29" y2="1940"/><line class="cls-26" x1="392.18" y1="1990.63" x2="392.18" y2="1940"/><line class="cls-26" x1="399.47" y1="2091.89" x2="399.47" y2="2041.27"/><polyline class="cls-26" points="399.47 2091.89 399.47 2091.89 13.11 2091.89 13.11 2041.27 399.47 2041.27"/><line class="cls-26" x1="13.11" y1="2079.23" x2="399.47" y2="2079.23"/><line class="cls-26" x1="13.11" y1="2066.58" x2="399.47" y2="2066.58"/><line class="cls-26" x1="13.11" y1="2053.92" x2="399.47" y2="2053.92"/><line class="cls-26" x1="20.39" y1="2091.89" x2="20.39" y2="2041.27"/><line class="cls-26" x1="206.29" y1="2091.89" x2="206.29" y2="2041.27"/><line class="cls-26" x1="392.18" y1="2091.89" x2="392.18" y2="2041.27"/><line class="cls-26" x1="399.47" y1="2193.16" x2="399.47" y2="2142.53"/><polyline class="cls-26" points="399.47 2193.16 399.47 2193.16 13.11 2193.16 13.11 2142.53 399.47 2142.53"/><line class="cls-26" x1="13.11" y1="2180.5" x2="399.47" y2="2180.5"/><line class="cls-26" x1="13.11" y1="2167.84" x2="399.47" y2="2167.84"/><line class="cls-26" x1="13.11" y1="2155.19" x2="399.47" y2="2155.19"/><line class="cls-26" x1="20.39" y1="2193.16" x2="20.39" y2="2142.53"/><line class="cls-26" x1="206.29" y1="2193.16" x2="206.29" y2="2142.53"/><line class="cls-26" x1="392.18" y1="2193.16" x2="392.18" y2="2142.53"/><line class="cls-26" x1="399.47" y1="2294.42" x2="399.47" y2="2243.8"/><polyline class="cls-26" points="399.47 2294.42 399.47 2294.42 13.11 2294.42 13.11 2243.8 399.47 2243.8"/><line class="cls-26" x1="13.11" y1="2281.76" x2="399.47" y2="2281.76"/><line class="cls-26" x1="13.11" y1="2269.11" x2="399.47" y2="2269.11"/><line class="cls-26" x1="13.11" y1="2256.45" x2="399.47" y2="2256.45"/><line class="cls-26" x1="20.39" y1="2294.42" x2="20.39" y2="2243.8"/><line class="cls-26" x1="206.29" y1="2294.42" x2="206.29" y2="2243.8"/><line class="cls-26" x1="392.18" y1="2294.42" x2="392.18" y2="2243.8"/><line class="cls-26" x1="399.47" y1="2395.68" x2="399.47" y2="2345.06"/><polyline class="cls-26" points="399.47 2395.68 399.47 2395.68 13.11 2395.68 13.11 2345.06 399.47 2345.06"/><line class="cls-26" x1="13.11" y1="2383.03" x2="399.47" y2="2383.03"/><line class="cls-26" x1="13.11" y1="2370.37" x2="399.47" y2="2370.37"/><line class="cls-26" x1="13.11" y1="2357.72" x2="399.47" y2="2357.72"/><line class="cls-26" x1="20.39" y1="2395.68" x2="20.39" y2="2345.06"/><line class="cls-26" x1="206.29" y1="2395.68" x2="206.29" y2="2345.06"/><line class="cls-26" x1="392.18" y1="2395.68" x2="392.18" y2="2345.06"/><line class="cls-26" x1="399.47" y1="2496.95" x2="399.47" y2="2446.33"/><polyline class="cls-26" points="399.47 2496.95 399.47 2496.95 13.11 2496.95 13.11 2446.32 399.47 2446.32"/><line class="cls-26" x1="13.11" y1="2484.29" x2="399.47" y2="2484.29"/><line class="cls-26" x1="13.11" y1="2471.64" x2="399.47" y2="2471.64"/><line class="cls-26" x1="13.11" y1="2458.98" x2="399.47" y2="2458.98"/><line class="cls-26" x1="20.39" y1="2496.95" x2="20.39" y2="2446.33"/><line class="cls-26" x1="206.29" y1="2496.95" x2="206.29" y2="2446.33"/><line class="cls-26" x1="392.18" y1="2496.95" x2="392.18" y2="2446.33"/><line class="cls-26" x1="399.47" y1="2598.21" x2="399.47" y2="2547.59"/><polyline class="cls-26" points="399.47 2598.21 399.47 2598.21 13.11 2598.21 13.11 2547.59 399.47 2547.59"/><line class="cls-26" x1="13.11" y1="2585.56" x2="399.47" y2="2585.56"/><line class="cls-26" x1="13.11" y1="2572.9" x2="399.47" y2="2572.9"/><line class="cls-26" x1="13.11" y1="2560.25" x2="399.47" y2="2560.25"/><line class="cls-26" x1="20.39" y1="2598.21" x2="20.39" y2="2547.59"/><line class="cls-26" x1="206.29" y1="2598.21" x2="206.29" y2="2547.59"/><line class="cls-26" x1="392.18" y1="2598.21" x2="392.18" y2="2547.59"/><line class="cls-26" x1="399.47" y1="2699.48" x2="399.47" y2="2648.85"/><polyline class="cls-26" points="399.47 2699.48 399.47 2699.48 13.11 2699.48 13.11 2648.85 399.47 2648.85"/><line class="cls-26" x1="13.11" y1="2686.82" x2="399.47" y2="2686.82"/><line class="cls-26" x1="13.11" y1="2674.17" x2="399.47" y2="2674.17"/><line class="cls-26" x1="13.11" y1="2661.51" x2="399.47" y2="2661.51"/><line class="cls-26" x1="20.39" y1="2699.48" x2="20.39" y2="2648.85"/><line class="cls-26" x1="206.29" y1="2699.48" x2="206.29" y2="2648.85"/><line class="cls-26" x1="392.18" y1="2699.48" x2="392.18" y2="2648.85"/><line class="cls-26" x1="399.47" y1="2800.74" x2="399.47" y2="2750.12"/><polyline class="cls-26" points="399.47 2800.74 399.47 2800.74 13.11 2800.74 13.11 2750.12 399.47 2750.12"/><line class="cls-26" x1="13.11" y1="2788.09" x2="399.47" y2="2788.09"/><line class="cls-26" x1="13.11" y1="2775.43" x2="399.47" y2="2775.43"/><line class="cls-26" x1="13.11" y1="2762.77" x2="399.47" y2="2762.77"/><line class="cls-26" x1="20.39" y1="2800.74" x2="20.39" y2="2750.12"/><line class="cls-26" x1="206.29" y1="2800.74" x2="206.29" y2="2750.12"/><line class="cls-26" x1="392.18" y1="2800.74" x2="392.18" y2="2750.12"/><line class="cls-26" x1="399.47" y1="2902.01" x2="399.47" y2="2851.38"/><polyline class="cls-26" points="399.47 2902.01 399.47 2902.01 13.11 2902.01 13.11 2851.38 399.47 2851.38"/><line class="cls-26" x1="13.11" y1="2889.35" x2="399.47" y2="2889.35"/><line class="cls-26" x1="13.11" y1="2876.69" x2="399.47" y2="2876.69"/><line class="cls-26" x1="13.11" y1="2864.04" x2="399.47" y2="2864.04"/><line class="cls-26" x1="20.39" y1="2902.01" x2="20.39" y2="2851.38"/><line class="cls-26" x1="206.29" y1="2902.01" x2="206.29" y2="2851.38"/><line class="cls-26" x1="392.18" y1="2902.01" x2="392.18" y2="2851.38"/><line class="cls-26" x1="399.47" y1="3003.27" x2="399.47" y2="2952.65"/><polyline class="cls-26" points="399.47 3003.27 399.47 3003.27 13.11 3003.27 13.11 2952.65 399.47 2952.65"/><line class="cls-26" x1="13.11" y1="2990.62" x2="399.47" y2="2990.62"/><line class="cls-26" x1="13.11" y1="2977.96" x2="399.47" y2="2977.96"/><line class="cls-26" x1="13.11" y1="2965.3" x2="399.47" y2="2965.3"/><line class="cls-26" x1="20.39" y1="3003.27" x2="20.39" y2="2952.65"/><line class="cls-26" x1="206.29" y1="3003.27" x2="206.29" y2="2952.65"/><line class="cls-26" x1="392.18" y1="3003.27" x2="392.18" y2="2952.65"/><line class="cls-26" x1="399.47" y1="3104.54" x2="399.47" y2="3053.91"/><polyline class="cls-26" points="399.47 3104.54 399.47 3104.54 13.11 3104.54 13.11 3053.91 399.47 3053.91"/><line class="cls-26" x1="13.11" y1="3091.88" x2="399.47" y2="3091.88"/><line class="cls-26" x1="13.11" y1="3079.22" x2="399.47" y2="3079.22"/><line class="cls-26" x1="13.11" y1="3066.57" x2="399.47" y2="3066.57"/><line class="cls-26" x1="20.39" y1="3104.54" x2="20.39" y2="3053.91"/><line class="cls-26" x1="206.29" y1="3104.54" x2="206.29" y2="3053.91"/><line class="cls-26" x1="392.18" y1="3104.54" x2="392.18" y2="3053.91"/><line class="cls-26" x1="399.47" y1="3307.36" x2="399.47" y2="3256.74"/><polyline class="cls-26" points="399.47 3307.36 399.47 3307.36 13.11 3307.36 13.11 3256.74 399.47 3256.74"/><line class="cls-26" x1="13.11" y1="3294.7" x2="399.47" y2="3294.7"/><line class="cls-26" x1="13.11" y1="3282.05" x2="399.47" y2="3282.05"/><line class="cls-26" x1="13.11" y1="3269.39" x2="399.47" y2="3269.39"/><line class="cls-26" x1="20.39" y1="3307.36" x2="20.39" y2="3256.74"/><line class="cls-26" x1="206.29" y1="3307.36" x2="206.29" y2="3256.74"/><line class="cls-26" x1="392.18" y1="3307.36" x2="392.18" y2="3256.74"/></g></g></svg>