<svg xmlns="http://www.w3.org/2000/svg" viewBox="0 0 1209.69 4627.19"><defs><style>.cls-1{fill:#95d2ea;}.cls-2{fill:#94d9da;}.cls-3{fill:#93e1ca;}.cls-4{fill:#92e8ba;}.cls-5{fill:#ffffa8;}.cls-6{fill:#dbf7ae;}.cls-7{fill:#b6f0b4;}.cls-8{fill:#b8ffdb;}.cls-9{fill:#d0e8d0;}.cls-10{fill:#e7d0c5;}.cls-11{fill:#ffb9ba;}.cls-12{fill:#d3ffff;}.cls-13{fill:#d5fffb;}.cls-14{fill:#d6fff8;}.cls-15{fill:#d8fff4;}.cls-16{fill:#87ffff;}.cls-17{fill:#66deff;}.cls-18{fill:#66decc;}.cls-19{fill:#66de66;}.cls-20{fill:#66ff4c;}.cls-21{fill:#ffb6a5;}.cls-22{fill:#ffd6cc;}.cls-23{fill:#ffb6cc;}.cls-24{fill:#ffb6bb;}.cls-25{fill:#ffcef9;}.cls-26{fill:#ff99f9;}.cls-27{fill:#ff66f9;}.cls-28{fill:#ffccc9;}.cls-29{fill:#ffb3c1;}.cls-30{fill:#ffff9e;}.cls-31{fill:#ffdfb7;}.cls-32{fill:#ffffce;}.cls-33{fill:#ff0;}.cls-34{fill:#ffffa5;}.cls-35{fill:#ffd15c;}.cls-36{fill:#ffef5c;}.cls-37{fill:#ffed9d;}.cls-38{fill:#e4f2b1;}.cls-39{fill:#e4f242;}.cls-40{fill:#ff73c9;}.cls-41{fill:none;stroke:#000;stroke-linecap:square;stroke-width:0.25px;}</style></defs><g id="Layer_2" data-name="Layer 2"><g id="background"><rect class="cls-1" x="801.78" y="3585.44" width="392.24" height="105.92"/><rect class="cls-2" x="801.78" y="3799.73" width="392.24" height="105.92"/><rect class="cls-3" x="801.78" y="4014.03" width="392.24" height="105.92"/><rect class="cls-4" x="801.78" y="4228.33" width="392.24" height="105.92"/><rect class="cls-5" x="15.61" y="2755.82" width="392.24" height="105.92"/><rect class="cls-6" x="15.61" y="2970.12" width="392.24" height="105.92"/><rect class="cls-7" x="15.61" y="3184.42" width="392.24" height="105.92"/><rect class="cls-4" x="15.61" y="3398.71" width="392.24" height="105.92"/><rect class="cls-8" x="408.33" y="1150.24" width="392.24" height="105.92"/><rect class="cls-9" x="408.33" y="1364.54" width="392.24" height="105.92"/><rect class="cls-10" x="408.33" y="1578.84" width="392.24" height="105.92"/><rect class="cls-11" x="408.33" y="1793.14" width="392.24" height="105.92"/><rect class="cls-12" x="15.3" y="135.73" width="392.24" height="105.92"/><rect class="cls-13" x="15.3" y="350.03" width="392.24" height="105.92"/><rect class="cls-14" x="15.3" y="564.33" width="392.24" height="105.92"/><rect class="cls-15" x="15.3" y="778.62" width="392.24" height="105.92"/></g><g id="colors_illustations" data-name="colors illustations"><rect class="cls-16" x="15.56" y="0.09" width="392.88" height="26.75"/><rect class="cls-16" x="408.42" y="80.3" width="392.88" height="26.75"/><rect class="cls-16" x="801.24" y="187.18" width="392.88" height="26.75"/><rect class="cls-17" x="15.56" y="294.31" width="392.88" height="26.75"/><rect class="cls-17" x="408.42" y="374.52" width="392.88" height="26.75"/><rect class="cls-17" x="801.24" y="481.4" width="392.88" height="26.75"/><rect class="cls-18" x="15.56" y="641.99" width="392.88" height="26.75"/><rect class="cls-18" x="408.42" y="722.19" width="392.88" height="26.75"/><rect class="cls-18" x="801.24" y="829.07" width="392.88" height="26.75"/><rect class="cls-19" x="15.56" y="989.87" width="392.88" height="26.75"/><rect class="cls-19" x="408.42" y="1070.07" width="392.88" height="26.75"/><rect class="cls-19" x="801.24" y="1123.21" width="392.88" height="26.75"/><rect class="cls-20" x="15.56" y="1337.54" width="392.88" height="26.75"/><rect class="cls-20" x="408.42" y="1390.35" width="392.88" height="26.75"/><rect class="cls-20" x="801.24" y="1417.51" width="392.88" height="26.75"/><rect class="cls-21" x="15.56" y="1792.11" width="392.88" height="26.75"/><rect class="cls-21" x="15.56" y="1711.79" width="392.88" height="26.75"/><rect class="cls-21" x="408.42" y="1765.63" width="392.88" height="26.75"/><rect class="cls-21" x="408.42" y="1739.56" width="392.88" height="26.75"/><rect class="cls-21" x="801.24" y="1793.33" width="392.88" height="26.75"/><rect class="cls-22" x="15.56" y="2033.1" width="392.88" height="26.75"/><rect class="cls-22" x="408.42" y="2113.3" width="392.88" height="26.75"/><rect class="cls-23" x="801.24" y="2220.18" width="392.88" height="26.75"/><rect class="cls-22" x="801.24" y="2033.15" width="392.88" height="26.75"/><rect class="cls-24" x="801.24" y="1868.85" width="392.88" height="26.75"/><rect class="cls-25" x="15.56" y="2380.98" width="392.88" height="26.75"/><rect class="cls-25" x="408.18" y="2246.62" width="392.88" height="26.75"/><rect class="cls-26" x="408.42" y="2461.18" width="392.88" height="26.75"/><rect class="cls-27" x="801.24" y="2407.74" width="392.88" height="26.75"/><rect class="cls-28" x="15.56" y="2728.65" width="392.88" height="26.75"/><rect class="cls-28" x="408.42" y="2808.86" width="392.88" height="26.75"/><rect class="cls-29" x="408.49" y="2674.75" width="392.88" height="26.75"/><rect class="cls-30" x="15.56" y="3076.53" width="392.88" height="26.75"/><rect class="cls-31" x="799.93" y="2889.45" width="392.88" height="26.75"/><rect class="cls-30" x="408.42" y="3319.72" width="392.88" height="26.75"/><rect class="cls-32" x="801.24" y="3263.62" width="392.88" height="26.75"/><rect class="cls-33" x="15.56" y="3424.21" width="392.88" height="26.75"/><rect class="cls-34" x="408.42" y="3504.41" width="392.88" height="26.75"/><rect class="cls-34" x="801.24" y="3611.29" width="392.88" height="26.75"/><rect class="cls-35" x="15.56" y="3878.03" width="392.88" height="26.75"/><rect class="cls-36" x="15.56" y="3745.31" width="392.88" height="26.75"/><rect class="cls-35" x="408.42" y="3825.28" width="392.88" height="26.75"/><rect class="cls-37" x="801.24" y="3959.17" width="392.88" height="26.75"/><rect class="cls-37" x="15.56" y="4254.31" width="392.88" height="26.75"/><rect class="cls-38" x="408.42" y="4067.62" width="392.88" height="26.75"/><rect class="cls-38" x="801.24" y="4306.85" width="392.88" height="26.75"/><rect class="cls-39" x="15.56" y="4600.44" width="392.88" height="26.75"/><rect class="cls-39" x="408.42" y="4547.84" width="392.88" height="26.75"/><rect class="cls-39" x="801.24" y="4467.31" width="392.88" height="26.75"/><rect class="cls-33" x="15.56" y="3611.82" width="392.88" height="26.75"/><rect class="cls-30" x="408.42" y="3209.53" width="392.88" height="26.75"/><rect class="cls-40" x="801.24" y="2540.69" width="392.88" height="26.75"/></g><g id="artworks"><line class="cls-41" x1="1209.56" y1="107.12" x2="1209.56" y2="0.13"/><polyline class="cls-41" points="1209.57 107.12 1209.57 107.12 0.13 107.12 0.13 0.13 1209.57 0.13"/><line class="cls-41" x1="0.13" y1="80.37" x2="1209.56" y2="80.37"/><line class="cls-41" x1="0.13" y1="53.62" x2="1209.56" y2="53.62"/><line class="cls-41" x1="0.13" y1="26.87" x2="1209.56" y2="26.87"/><line class="cls-41" x1="15.52" y1="107.12" x2="15.52" y2="0.13"/><line class="cls-41" x1="408.4" y1="107.12" x2="408.4" y2="0.13"/><line class="cls-41" x1="801.28" y1="107.12" x2="801.28" y2="0.13"/><line class="cls-41" x1="1194.16" y1="107.12" x2="1194.16" y2="0.13"/><line class="cls-41" x1="1209.56" y1="321.08" x2="1209.56" y2="214.09"/><polyline class="cls-41" points="1209.57 321.08 1209.57 321.08 0.13 321.08 0.13 214.09 1209.57 214.09"/><line class="cls-41" x1="0.13" y1="294.34" x2="1209.56" y2="294.34"/><line class="cls-41" x1="0.13" y1="267.59" x2="1209.56" y2="267.59"/><line class="cls-41" x1="0.13" y1="240.84" x2="1209.56" y2="240.84"/><line class="cls-41" x1="15.52" y1="321.08" x2="15.52" y2="214.09"/><line class="cls-41" x1="408.4" y1="321.08" x2="408.4" y2="214.09"/><line class="cls-41" x1="801.28" y1="321.08" x2="801.28" y2="214.09"/><line class="cls-41" x1="1194.16" y1="321.08" x2="1194.16" y2="214.09"/><line class="cls-41" x1="1209.56" y1="535.05" x2="1209.56" y2="428.06"/><polyline class="cls-41" points="1209.57 535.05 1209.57 535.05 0.13 535.05 0.13 428.06 1209.57 428.06"/><line class="cls-41" x1="0.13" y1="508.31" x2="1209.56" y2="508.31"/><line class="cls-41" x1="0.13" y1="481.56" x2="1209.56" y2="481.56"/><line class="cls-41" x1="0.13" y1="454.81" x2="1209.56" y2="454.81"/><line class="cls-41" x1="15.52" y1="535.05" x2="15.52" y2="428.06"/><line class="cls-41" x1="408.4" y1="535.05" x2="408.4" y2="428.06"/><line class="cls-41" x1="801.28" y1="535.05" x2="801.28" y2="428.06"/><line class="cls-41" x1="1194.16" y1="535.05" x2="1194.16" y2="428.06"/><line class="cls-41" x1="1209.56" y1="749.02" x2="1209.56" y2="642.03"/><polyline class="cls-41" points="1209.57 749.02 1209.57 749.02 0.13 749.02 0.13 642.03 1209.57 642.03"/><line class="cls-41" x1="0.13" y1="722.27" x2="1209.56" y2="722.27"/><line class="cls-41" x1="0.13" y1="695.53" x2="1209.56" y2="695.53"/><line class="cls-41" x1="0.13" y1="668.78" x2="1209.56" y2="668.78"/><line class="cls-41" x1="15.52" y1="749.02" x2="15.52" y2="642.03"/><line class="cls-41" x1="408.4" y1="749.02" x2="408.4" y2="642.03"/><line class="cls-41" x1="801.28" y1="749.02" x2="801.28" y2="642.03"/><line class="cls-41" x1="1194.16" y1="749.02" x2="1194.16" y2="642.03"/><line class="cls-41" x1="1209.56" y1="962.99" x2="1209.56" y2="856"/><polyline class="cls-41" points="1209.57 962.99 1209.57 962.99 0.13 962.99 0.13 856 1209.57 856"/><line class="cls-41" x1="0.13" y1="936.24" x2="1209.56" y2="936.24"/><line class="cls-41" x1="0.13" y1="909.49" x2="1209.56" y2="909.49"/><line class="cls-41" x1="0.13" y1="882.75" x2="1209.56" y2="882.75"/><line class="cls-41" x1="15.52" y1="962.99" x2="15.52" y2="856"/><line class="cls-41" x1="408.4" y1="962.99" x2="408.4" y2="856"/><line class="cls-41" x1="801.28" y1="962.99" x2="801.28" y2="856"/><line class="cls-41" x1="1194.16" y1="962.99" x2="1194.16" y2="856"/><line class="cls-41" x1="1209.56" y1="1176.96" x2="1209.56" y2="1069.97"/><polyline class="cls-41" points="1209.57 1176.96 1209.57 1176.96 0.13 1176.96 0.13 1069.97 1209.57 1069.97"/><line class="cls-41" x1="0.13" y1="1150.21" x2="1209.56" y2="1150.21"/><line class="cls-41" x1="0.13" y1="1123.46" x2="1209.56" y2="1123.46"/><line class="cls-41" x1="0.13" y1="1096.71" x2="1209.56" y2="1096.71"/><line class="cls-41" x1="15.52" y1="1176.96" x2="15.52" y2="1069.97"/><line class="cls-41" x1="408.4" y1="1176.96" x2="408.4" y2="1069.97"/><line class="cls-41" x1="801.28" y1="1176.96" x2="801.28" y2="1069.97"/><line class="cls-41" x1="1194.16" y1="1176.96" x2="1194.16" y2="1069.97"/><line class="cls-41" x1="1209.56" y1="1390.93" x2="1209.56" y2="1283.93"/><polyline class="cls-41" points="1209.57 1390.93 1209.57 1390.93 0.13 1390.93 0.13 1283.93 1209.57 1283.93"/><line class="cls-41" x1="0.13" y1="1364.18" x2="1209.56" y2="1364.18"/><line class="cls-41" x1="0.13" y1="1337.43" x2="1209.56" y2="1337.43"/><line class="cls-41" x1="0.13" y1="1310.68" x2="1209.56" y2="1310.68"/><line class="cls-41" x1="15.52" y1="1390.93" x2="15.52" y2="1283.93"/><line class="cls-41" x1="408.4" y1="1390.93" x2="408.4" y2="1283.93"/><line class="cls-41" x1="801.28" y1="1390.93" x2="801.28" y2="1283.93"/><line class="cls-41" x1="1194.16" y1="1390.93" x2="1194.16" y2="1283.93"/><line class="cls-41" x1="1209.56" y1="1604.89" x2="1209.56" y2="1497.9"/><polyline class="cls-41" points="1209.57 1604.89 1209.57 1604.89 0.13 1604.89 0.13 1497.9 1209.57 1497.9"/><line class="cls-41" x1="0.13" y1="1578.15" x2="1209.56" y2="1578.15"/><line class="cls-41" x1="0.13" y1="1551.4" x2="1209.56" y2="1551.4"/><line class="cls-41" x1="0.13" y1="1524.65" x2="1209.56" y2="1524.65"/><line class="cls-41" x1="15.52" y1="1604.89" x2="15.52" y2="1497.9"/><line class="cls-41" x1="408.4" y1="1604.89" x2="408.4" y2="1497.9"/><line class="cls-41" x1="801.28" y1="1604.89" x2="801.28" y2="1497.9"/><line class="cls-41" x1="1194.16" y1="1604.89" x2="1194.16" y2="1497.9"/><line class="cls-41" x1="1209.56" y1="1818.86" x2="1209.56" y2="1711.87"/><polyline class="cls-41" points="1209.57 1818.86 1209.57 1818.86 0.13 1818.86 0.13 1711.87 1209.57 1711.87"/><line class="cls-41" x1="0.13" y1="1792.12" x2="1209.56" y2="1792.12"/><line class="cls-41" x1="0.13" y1="1765.37" x2="1209.56" y2="1765.37"/><line class="cls-41" x1="0.13" y1="1738.62" x2="1209.56" y2="1738.62"/><line class="cls-41" x1="15.52" y1="1818.86" x2="15.52" y2="1711.87"/><line class="cls-41" x1="408.4" y1="1818.86" x2="408.4" y2="1711.87"/><line class="cls-41" x1="801.28" y1="1818.86" x2="801.28" y2="1711.87"/><line class="cls-41" x1="1194.16" y1="1818.86" x2="1194.16" y2="1711.87"/><line class="cls-41" x1="1209.56" y1="2032.83" x2="1209.56" y2="1925.84"/><polyline class="cls-41" points="1209.57 2032.83 1209.57 2032.83 0.13 2032.83 0.13 1925.84 1209.57 1925.84"/><line class="cls-41" x1="0.13" y1="2006.08" x2="1209.56" y2="2006.08"/><line class="cls-41" x1="0.13" y1="1979.34" x2="1209.56" y2="1979.34"/><line class="cls-41" x1="0.13" y1="1952.59" x2="1209.56" y2="1952.59"/><line class="cls-41" x1="15.52" y1="2032.83" x2="15.52" y2="1925.84"/><line class="cls-41" x1="408.4" y1="2032.83" x2="408.4" y2="1925.84"/><line class="cls-41" x1="801.28" y1="2032.83" x2="801.28" y2="1925.84"/><line class="cls-41" x1="1194.16" y1="2032.83" x2="1194.16" y2="1925.84"/><line class="cls-41" x1="1209.56" y1="2246.8" x2="1209.56" y2="2139.81"/><polyline class="cls-41" points="1209.57 2246.8 1209.57 2246.8 0.13 2246.8 0.13 2139.81 1209.57 2139.81"/><line class="cls-41" x1="0.13" y1="2220.05" x2="1209.56" y2="2220.05"/><line class="cls-41" x1="0.13" y1="2193.3" x2="1209.56" y2="2193.3"/><line class="cls-41" x1="0.13" y1="2166.56" x2="1209.56" y2="2166.56"/><line class="cls-41" x1="15.52" y1="2246.8" x2="15.52" y2="2139.81"/><line class="cls-41" x1="408.4" y1="2246.8" x2="408.4" y2="2139.81"/><line class="cls-41" x1="801.28" y1="2246.8" x2="801.28" y2="2139.81"/><line class="cls-41" x1="1194.16" y1="2246.8" x2="1194.16" y2="2139.81"/><line class="cls-41" x1="1209.56" y1="2460.77" x2="1209.56" y2="2353.78"/><polyline class="cls-41" points="1209.57 2460.77 1209.57 2460.77 0.13 2460.77 0.13 2353.78 1209.57 2353.78"/><line class="cls-41" x1="0.13" y1="2434.02" x2="1209.56" y2="2434.02"/><line class="cls-41" x1="0.13" y1="2407.27" x2="1209.56" y2="2407.27"/><line class="cls-41" x1="0.13" y1="2380.52" x2="1209.56" y2="2380.52"/><line class="cls-41" x1="15.52" y1="2460.77" x2="15.52" y2="2353.78"/><line class="cls-41" x1="408.4" y1="2460.77" x2="408.4" y2="2353.78"/><line class="cls-41" x1="801.28" y1="2460.77" x2="801.28" y2="2353.78"/><line class="cls-41" x1="1194.16" y1="2460.77" x2="1194.16" y2="2353.78"/><line class="cls-41" x1="1209.56" y1="2674.74" x2="1209.56" y2="2567.74"/><polyline class="cls-41" points="1209.57 2674.74 1209.57 2674.74 0.13 2674.74 0.13 2567.74 1209.57 2567.74"/><line class="cls-41" x1="0.13" y1="2647.99" x2="1209.56" y2="2647.99"/><line class="cls-41" x1="0.13" y1="2621.24" x2="1209.56" y2="2621.24"/><line class="cls-41" x1="0.13" y1="2594.49" x2="1209.56" y2="2594.49"/><line class="cls-41" x1="15.52" y1="2674.74" x2="15.52" y2="2567.74"/><line class="cls-41" x1="408.4" y1="2674.74" x2="408.4" y2="2567.74"/><line class="cls-41" x1="801.28" y1="2674.74" x2="801.28" y2="2567.74"/><line class="cls-41" x1="1194.16" y1="2674.74" x2="1194.16" y2="2567.74"/><line class="cls-41" x1="1209.56" y1="2888.7" x2="1209.56" y2="2781.71"/><polyline class="cls-41" points="1209.57 2888.7 1209.57 2888.7 0.13 2888.7 0.13 2781.71 1209.57 2781.71"/><line class="cls-41" x1="0.13" y1="2861.96" x2="1209.56" y2="2861.96"/><line class="cls-41" x1="0.13" y1="2835.21" x2="1209.56" y2="2835.21"/><line class="cls-41" x1="0.13" y1="2808.46" x2="1209.56" y2="2808.46"/><line class="cls-41" x1="15.52" y1="2888.7" x2="15.52" y2="2781.71"/><line class="cls-41" x1="408.4" y1="2888.7" x2="408.4" y2="2781.71"/><line class="cls-41" x1="801.28" y1="2888.7" x2="801.28" y2="2781.71"/><line class="cls-41" x1="1194.16" y1="2888.7" x2="1194.16" y2="2781.71"/><line class="cls-41" x1="1209.56" y1="3102.67" x2="1209.56" y2="2995.68"/><polyline class="cls-41" points="1209.57 3102.67 1209.57 3102.67 0.13 3102.67 0.13 2995.68 1209.57 2995.68"/><line class="cls-41" x1="0.13" y1="3075.92" x2="1209.56" y2="3075.92"/><line class="cls-41" x1="0.13" y1="3049.18" x2="1209.56" y2="3049.18"/><line class="cls-41" x1="0.13" y1="3022.43" x2="1209.56" y2="3022.43"/><line class="cls-41" x1="15.52" y1="3102.67" x2="15.52" y2="2995.68"/><line class="cls-41" x1="408.4" y1="3102.67" x2="408.4" y2="2995.68"/><line class="cls-41" x1="801.28" y1="3102.67" x2="801.28" y2="2995.68"/><line class="cls-41" x1="1194.16" y1="3102.67" x2="1194.16" y2="2995.68"/><line class="cls-41" x1="1209.56" y1="3316.64" x2="1209.56" y2="3209.65"/><polyline class="cls-41" points="1209.57 3316.64 1209.57 3316.64 0.13 3316.64 0.13 3209.65 1209.57 3209.65"/><line class="cls-41" x1="0.13" y1="3289.89" x2="1209.56" y2="3289.89"/><line class="cls-41" x1="0.13" y1="3263.15" x2="1209.56" y2="3263.15"/><line class="cls-41" x1="0.13" y1="3236.4" x2="1209.56" y2="3236.4"/><line class="cls-41" x1="15.52" y1="3316.64" x2="15.52" y2="3209.65"/><line class="cls-41" x1="408.4" y1="3316.64" x2="408.4" y2="3209.65"/><line class="cls-41" x1="801.28" y1="3316.64" x2="801.28" y2="3209.65"/><line class="cls-41" x1="1194.16" y1="3316.64" x2="1194.16" y2="3209.65"/><line class="cls-41" x1="1209.56" y1="3530.61" x2="1209.56" y2="3423.62"/><polyline class="cls-41" points="1209.57 3530.61 1209.57 3530.61 0.13 3530.61 0.13 3423.62 1209.57 3423.62"/><line class="cls-41" x1="0.13" y1="3503.86" x2="1209.56" y2="3503.86"/><line class="cls-41" x1="0.13" y1="3477.11" x2="1209.56" y2="3477.11"/><line class="cls-41" x1="0.13" y1="3450.37" x2="1209.56" y2="3450.37"/><line class="cls-41" x1="15.52" y1="3530.61" x2="15.52" y2="3423.62"/><line class="cls-41" x1="408.4" y1="3530.61" x2="408.4" y2="3423.62"/><line class="cls-41" x1="801.28" y1="3530.61" x2="801.28" y2="3423.62"/><line class="cls-41" x1="1194.16" y1="3530.61" x2="1194.16" y2="3423.62"/><line class="cls-41" x1="1209.56" y1="3744.58" x2="1209.56" y2="3637.59"/><polyline class="cls-41" points="1209.57 3744.58 1209.57 3744.58 0.13 3744.58 0.13 3637.59 1209.57 3637.59"/><line class="cls-41" x1="0.13" y1="3717.83" x2="1209.56" y2="3717.83"/><line class="cls-41" x1="0.13" y1="3691.08" x2="1209.56" y2="3691.08"/><line class="cls-41" x1="0.13" y1="3664.33" x2="1209.56" y2="3664.33"/><line class="cls-41" x1="15.52" y1="3744.58" x2="15.52" y2="3637.59"/><line class="cls-41" x1="408.4" y1="3744.58" x2="408.4" y2="3637.59"/><line class="cls-41" x1="801.28" y1="3744.58" x2="801.28" y2="3637.59"/><line class="cls-41" x1="1194.16" y1="3744.58" x2="1194.16" y2="3637.59"/><line class="cls-41" x1="1209.56" y1="3958.55" x2="1209.56" y2="3851.55"/><polyline class="cls-41" points="1209.57 3958.55 1209.57 3958.55 0.13 3958.55 0.13 3851.55 1209.57 3851.55"/><line class="cls-41" x1="0.13" y1="3931.8" x2="1209.56" y2="3931.8"/><line class="cls-41" x1="0.13" y1="3905.05" x2="1209.56" y2="3905.05"/><line class="cls-41" x1="0.13" y1="3878.3" x2="1209.56" y2="3878.3"/><line class="cls-41" x1="15.52" y1="3958.55" x2="15.52" y2="3851.55"/><line class="cls-41" x1="408.4" y1="3958.55" x2="408.4" y2="3851.55"/><line class="cls-41" x1="801.28" y1="3958.55" x2="801.28" y2="3851.55"/><line class="cls-41" x1="1194.16" y1="3958.55" x2="1194.16" y2="3851.55"/><line class="cls-41" x1="1209.56" y1="4172.51" x2="1209.56" y2="4065.52"/><polyline class="cls-41" points="1209.57 4172.51 1209.57 4172.51 0.13 4172.51 0.13 4065.52 1209.57 4065.52"/><line class="cls-41" x1="0.13" y1="4145.77" x2="1209.56" y2="4145.77"/><line class="cls-41" x1="0.13" y1="4119.02" x2="1209.56" y2="4119.02"/><line class="cls-41" x1="0.13" y1="4092.27" x2="1209.56" y2="4092.27"/><line class="cls-41" x1="15.52" y1="4172.51" x2="15.52" y2="4065.52"/><line class="cls-41" x1="408.4" y1="4172.51" x2="408.4" y2="4065.52"/><line class="cls-41" x1="801.28" y1="4172.51" x2="801.28" y2="4065.52"/><line class="cls-41" x1="1194.16" y1="4172.51" x2="1194.16" y2="4065.52"/><line class="cls-41" x1="1209.56" y1="4386.48" x2="1209.56" y2="4279.49"/><polyline class="cls-41" points="1209.57 4386.48 1209.57 4386.48 0.13 4386.48 0.13 4279.49 1209.57 4279.49"/><line class="cls-41" x1="0.13" y1="4359.73" x2="1209.56" y2="4359.73"/><line class="cls-41" x1="0.13" y1="4332.99" x2="1209.56" y2="4332.99"/><line class="cls-41" x1="0.13" y1="4306.24" x2="1209.56" y2="4306.24"/><line class="cls-41" x1="15.52" y1="4386.48" x2="15.52" y2="4279.49"/><line class="cls-41" x1="408.4" y1="4386.48" x2="408.4" y2="4279.49"/><line class="cls-41" x1="801.28" y1="4386.48" x2="801.28" y2="4279.49"/><line class="cls-41" x1="1194.16" y1="4386.48" x2="1194.16" y2="4279.49"/><line class="cls-41" x1="1209.56" y1="4600.45" x2="1209.56" y2="4493.46"/><polyline class="cls-41" points="1209.57 4600.45 1209.57 4600.45 0.13 4600.45 0.13 4493.46 1209.57 4493.46"/><line class="cls-41" x1="0.13" y1="4573.7" x2="1209.56" y2="4573.7"/><line class="cls-41" x1="0.13" y1="4546.96" x2="1209.56" y2="4546.96"/><line class="cls-41" x1="0.13" y1="4520.21" x2="1209.56" y2="4520.21"/><line class="cls-41" x1="15.52" y1="4600.45" x2="15.52" y2="4493.46"/><line class="cls-41" x1="408.4" y1="4600.45" x2="408.4" y2="4493.46"/><line class="cls-41" x1="801.28" y1="4600.45" x2="801.28" y2="4493.46"/><line class="cls-41" x1="1194.16" y1="4600.45" x2="1194.16" y2="4493.46"/></g></g></svg>